<?xml version="1.0" encoding="UTF-8"?>
<svg xmlns="http://www.w3.org/2000/svg" xmlns:xlink="http://www.w3.org/1999/xlink" viewBox="0 0 3110.12 1742.04">
  <defs>
    <style>
      .cls-1 {
        fill: url(#linear-gradient-2);
      }

      .cls-2 {
        <!-- fill: #fff; -->
        fill: transparent;
      }

      .cls-3 {
        fill: url(#linear-gradient-17);
      }

      .cls-4 {
        fill: url(#linear-gradient-15);
      }

      .cls-5 {
        fill: url(#linear-gradient-18);
      }

      .cls-6 {
        fill: url(#linear-gradient-14);
      }

      .cls-7 {
        fill: url(#linear-gradient-20);
      }

      .cls-8 {
        fill: url(#linear-gradient-6);
      }

      .cls-9 {
        isolation: isolate;
      }

      .cls-10 {
        fill: url(#linear-gradient-11);
      }

      .cls-11 {
        fill: url(#linear-gradient-10);
      }

      .cls-12 {
        fill: url(#radial-gradient);
      }

      .cls-13 {
        fill: url(#linear-gradient-16);
      }

      .cls-14 {
        fill: url(#linear-gradient-21);
      }

      .cls-15 {
        fill: url(#linear-gradient-25);
      }

      .cls-16 {
        fill: url(#linear-gradient-5);
      }

      .cls-17 {
        clip-path: url(#clippath);
      }

      .cls-18 {
        fill: none;
      }

      .cls-19 {
        fill: url(#linear-gradient-7);
      }

      .cls-20 {
        fill: url(#linear-gradient-24);
      }

      .cls-21 {
        fill: url(#linear-gradient-9);
      }

      .cls-22 {
        fill: url(#linear-gradient-22);
      }

      .cls-23 {
        fill: url(#linear-gradient-3);
      }

      .cls-24 {
        fill: url(#linear-gradient);
      }

      .cls-25 {
        fill: url(#linear-gradient-23);
      }

      .cls-26 {
        fill: url(#linear-gradient-19);
      }

      .cls-27 {
        fill: #231f20;
      }

      .cls-28 {
        fill: url(#linear-gradient-4);
      }

      .cls-29 {
        mix-blend-mode: multiply;
      }

      .cls-30 {
        fill: url(#linear-gradient-8);
      }

      .cls-31 {
        fill: url(#linear-gradient-12);
      }

      .cls-32 {
        fill: url(#linear-gradient-13);
      }
    </style>
    <clipPath id="clippath">
      <rect class="cls-18" x="119.96" width="2870.19" height="1742.04"/>
    </clipPath>
    <radialGradient id="radial-gradient" cx="2089.3" cy="569.8" fx="2089.3" fy="569.8" r="1608.07" gradientUnits="userSpaceOnUse">
      <!-- <stop offset=".38" stop-color="#fff"/>
      <stop offset="1" stop-color="#e2e2e2"/> -->
      <stop offset=".38" stop-color="transparent"/>
      <stop offset="1" stop-color="transparent"/>
    </radialGradient>
    <linearGradient id="linear-gradient" x1="-1752.28" y1="2402.97" x2="1028.75" y2="815.7" gradientUnits="userSpaceOnUse">
      <stop offset="0" stop-color="transparent"/>
      <stop offset="1" stop-color="transparent"/>
    </linearGradient>
    <linearGradient id="linear-gradient-2" x1="-1747.39" y1="2399.83" x2="1033.64" y2="812.56" gradientUnits="userSpaceOnUse">
      <stop offset="0" stop-color="transparent"/>
      <stop offset="1" stop-color="transparent"/>
    </linearGradient>
    <linearGradient id="linear-gradient-3" x1="-1742.5" y1="2396.69" x2="1038.54" y2="809.42" gradientUnits="userSpaceOnUse">
      <stop offset="0" stop-color="transparent"/>
      <stop offset="1" stop-color="transparent"/>
    </linearGradient>
    <linearGradient id="linear-gradient-4" x1="-1737.6" y1="2393.55" x2="1043.43" y2="806.28" gradientUnits="userSpaceOnUse">
      <stop offset="0" stop-color="transparent"/>
      <stop offset="1" stop-color="transparent"/>
    </linearGradient>
    <linearGradient id="linear-gradient-5" x1="-1732.71" y1="2390.41" x2="1048.32" y2="803.14" gradientUnits="userSpaceOnUse">
      <stop offset="0" stop-color="transparent"/>
      <stop offset="1" stop-color="transparent"/>
    </linearGradient>
    <linearGradient id="linear-gradient-6" x1="-1727.82" y1="2387.27" x2="1053.21" y2="800" gradientUnits="userSpaceOnUse">
      <stop offset="0" stop-color="transparent"/>
      <stop offset="1" stop-color="transparent"/>
    </linearGradient>
    <linearGradient id="linear-gradient-7" x1="-1722.93" y1="2384.13" x2="1058.11" y2="796.86" gradientUnits="userSpaceOnUse">
      <stop offset="0" stop-color="transparent"/>
      <stop offset="1" stop-color="transparent"/>
    </linearGradient>
    <linearGradient id="linear-gradient-8" x1="-1718.03" y1="2380.99" x2="1063" y2="793.71" gradientUnits="userSpaceOnUse">
      <stop offset="0" stop-color="transparent"/>
      <stop offset="1" stop-color="transparent"/>
    </linearGradient>
    <linearGradient id="linear-gradient-9" x1="-1713.14" y1="2377.84" x2="1067.89" y2="790.57" gradientUnits="userSpaceOnUse">
      <stop offset="0" stop-color="transparent"/>
      <stop offset="1" stop-color="transparent"/>
    </linearGradient>
    <linearGradient id="linear-gradient-10" x1="-1708.25" y1="2374.7" x2="1072.79" y2="787.43" gradientUnits="userSpaceOnUse">
      <stop offset="0" stop-color="transparent"/>
      <stop offset="1" stop-color="transparent"/>
    </linearGradient>
    <linearGradient id="linear-gradient-11" x1="-1703.36" y1="2371.56" x2="1077.68" y2="784.29" gradientUnits="userSpaceOnUse">
      <stop offset="0" stop-color="transparent"/>
      <stop offset="1" stop-color="transparent"/>
    </linearGradient>
    <linearGradient id="linear-gradient-12" x1="-1698.46" y1="2368.42" x2="1082.57" y2="781.15" gradientUnits="userSpaceOnUse">
      <stop offset="0" stop-color="transparent"/>
      <stop offset="1" stop-color="transparent"/>
    </linearGradient>
    <linearGradient id="linear-gradient-13" x1="-1693.57" y1="2365.28" x2="1087.46" y2="778.01" gradientUnits="userSpaceOnUse">
      <stop offset="0" stop-color="transparent"/>
      <stop offset="1" stop-color="transparent"/>
    </linearGradient>
    <linearGradient id="linear-gradient-14" x1="-1688.68" y1="2362.14" x2="1092.36" y2="774.87" gradientUnits="userSpaceOnUse">
      <stop offset="0" stop-color="transparent"/>
      <stop offset="1" stop-color="transparent"/>
    </linearGradient>
    <linearGradient id="linear-gradient-15" x1="-1683.78" y1="2359" x2="1097.25" y2="771.72" gradientUnits="userSpaceOnUse">
      <stop offset="0" stop-color="transparent"/>
      <stop offset="1" stop-color="transparent"/>
    </linearGradient>
    <linearGradient id="linear-gradient-16" x1="-1678.89" y1="2355.85" x2="1102.14" y2="768.58" gradientUnits="userSpaceOnUse">
      <stop offset="0" stop-color="transparent"/>
      <stop offset="1" stop-color="transparent"/>
    </linearGradient>
    <linearGradient id="linear-gradient-17" x1="-1674" y1="2352.71" x2="1107.03" y2="765.44" gradientUnits="userSpaceOnUse">
      <stop offset="0" stop-color="transparent"/>
      <stop offset="1" stop-color="transparent"/>
    </linearGradient>
    <linearGradient id="linear-gradient-18" x1="-1669.11" y1="2349.57" x2="1111.93" y2="762.3" gradientUnits="userSpaceOnUse">
      <stop offset="0" stop-color="transparent"/>
      <stop offset="1" stop-color="transparent"/>
    </linearGradient>
    <linearGradient id="linear-gradient-19" x1="-1664.21" y1="2346.43" x2="1116.82" y2="759.16" gradientUnits="userSpaceOnUse">
      <stop offset="0" stop-color="transparent"/>
      <stop offset="1" stop-color="transparent"/>
    </linearGradient>
    <linearGradient id="linear-gradient-20" x1="-1659.32" y1="2343.29" x2="1121.71" y2="756.02" gradientUnits="userSpaceOnUse">
      <stop offset="0" stop-color="transparent"/>
      <stop offset="1" stop-color="#0c0c0c"/>
    </linearGradient>
    <linearGradient id="linear-gradient-21" x1="-1736.94" y1="2131.05" x2="1003.16" y2="567.15" gradientTransform="translate(134.03 179.52) rotate(1.36)" gradientUnits="userSpaceOnUse">
      <stop offset="0" stop-color="transparent"/>
      <stop offset="1" stop-color="#000"/>
    </linearGradient>
    <linearGradient id="linear-gradient-22" x1="301.21" y1="1070.89" x2="237.05" y2="1192.47" xlink:href="#linear-gradient-21"/>
    <linearGradient id="linear-gradient-23" x1="171.69" y1="1088.85" x2="322.69" y2="911.34" xlink:href="#linear-gradient-21"/>
    <linearGradient id="linear-gradient-24" x1="467.02" y1="923.15" x2="553.85" y2="741.79" xlink:href="#linear-gradient-21"/>
    <linearGradient id="linear-gradient-25" x1="336.57" y1="523.67" x2="662.39" y2="337.71" xlink:href="#linear-gradient-21"/>
  </defs>
  <g class="cls-9">
    <g id="Layer_1" data-name="Layer 1">
      <g class="cls-17">
        <rect class="cls-12" x="119.96" width="2870.19" height="1742.04"/>
        <g>
          <g>
            <g>
              <rect y="1026.17" width="37.08" height="349.71"/>
              <rect x="61.64" y="1026.17" width="16.23" height="349.71"/>
            </g>
            <rect x="3093.86" y="1023.23" width="16.21" height="352.65"/>
            <g>
              <rect y="1017.98" width="3110.12" height="10.6"/>
              <rect y="1104.81" width="3110.12" height="10.59"/>
              <rect y="1191.63" width="3110.12" height="10.59"/>
              <rect y="1278.45" width="3110.12" height="10.6"/>
              <rect y="1365.27" width="3110.12" height="10.61"/>
            </g>
          </g>
          <path d="M2095.8,1232.18c-11.59-21.07-46.7-24-78.42-6.56-24.49,13.48-39.72,35.21-40.06,54.11h-.08l3.94,300.72,11.81-.14-3.63-275.38c15.74,11.89,44.01,11.32,70.04-2.99,31.71-17.46,48-48.68,36.41-69.77Z"/>
          <path d="M1328.31,1208.33c-8.86-16.59-36.27-19.25-61.23-5.93-19.3,10.29-31.42,27.11-31.88,41.88h-.08v166.33h-148.68v-146.49c12.19,9.46,34.31,9.31,54.8-1.6,24.96-13.34,38.03-37.59,29.19-54.19-8.87-16.59-36.27-19.25-61.25-5.93-19.3,10.29-31.44,27.11-31.89,41.88h-.05v235.18h.08v.14h167.09v-35.17h-.05v-20.18h.05v-13.64h-.05v-146.49c12.17,9.46,34.31,9.31,54.79-1.6,24.96-13.34,38.03-37.59,29.17-54.19Zm-93.19,236.1h-148.68v-20.18h148.68v20.18Z"/>
          <path d="M2844.37,836.81v-53.43l.15-26.2-199.13,65.39v-.42l-.41,.58-223.44,73.36v48.62l.05-.02v30.95l-.05,.02v23.93l.05-.02v181.25c-16.31-12.66-45.92-12.46-73.37,2.16-33.43,17.84-50.91,50.31-39.08,72.52,11.86,22.25,48.58,25.8,82.01,7.97,25.84-13.79,42.1-36.3,42.71-56.08h.07v-211.95l199.12-66.39v181.44c-16.31-12.67-45.92-12.48-73.37,2.17-33.45,17.83-50.94,50.31-39.08,72.52,11.86,22.24,48.56,25.79,82.01,7.94,25.84-13.77,42.08-36.28,42.69-56.05h.08v-212.14l186.64-62.23v189.12c-16.31-12.66-45.94-12.46-73.37,2.17-33.45,17.84-50.92,50.31-39.08,72.53,11.87,22.23,48.57,25.8,82.01,7.95,25.83-13.77,42.09-36.29,42.69-56.08h.08v-229.35l.15-12.31-.15,.06Zm-410.44,134.79v-31.03l199.12-66.39v32.02l-199.12,65.4Zm211.45-69.45v-32.09l186.64-62.23v33.03l-186.64,61.29Z"/>
          <g>
            <path d="M1005.45,980.31c8.98,16.86-4.29,41.49-29.64,55.01-25.37,13.55-53.24,10.84-62.23-6.03-8.99-16.86,4.28-41.5,29.66-55.02,25.35-13.53,53.21-10.82,62.21,6.04Z"/>
            <rect x="998.87" y="753.84" width="9.38" height="238.94"/>
          </g>
          <path d="M1402.5,1073.83c-30.07-.06-54.44,16.11-54.49,36.08-.02,19.99,24.32,36.21,54.35,36.25,30.05,.06,54.44-16.11,54.47-36.08,.03-19.98-24.29-36.19-54.34-36.25Zm37.12,46.34c-3.3,12.01-22.61,17.19-43.13,11.55-20.54-5.61-34.51-19.9-31.22-31.93,3.3-12.01,22.58-17.17,43.12-11.56,20.54,5.64,34.53,19.92,31.23,31.94Z"/>
          <path d="M1819.61,929.99c-13.61-7.67-21.23-15.13-25.55-21.03-3.67-4.7-6.52-9.91-8.01-15.91h-5.1v241.35c-13.64-10.61-38.43-10.45-61.4,1.81-27.99,14.92-42.63,42.1-32.72,60.69,9.92,18.62,40.66,21.59,68.64,6.65,21.63-11.51,35.24-30.36,35.75-46.93h.07v-224.05c12.2,15.5,42.02,23.8,52.29,41.12,10.75,18.19,3.97,45.45,3.97,45.45,23.14-56.26-2.1-74.63-27.92-89.15Z"/>
          <g>
            <g class="cls-29">
              <path class="cls-2" d="M596.02,1113.35c2.38,20.3-1.38,40.66-11,58.75-4.15,7.8-9.33,15.95-15.28,23.48-4.77-50.11-10.76-100.06-16.81-150.03,22.93,15.27,38.95,39.84,43.08,67.8Zm-59.06-428.17c7.07-23.39,15.84-46.23,31.72-65.12,6.91-7.42,14.71-14.06,24.41-17.5,1.33-.47,2.84-.98,4.36-1.36,.59,.3,2.99,.65,3.85,.87,3.68,.93,7.3,2.32,10.4,4.56,16.79,12.17,5.44,36.39-2.53,50.24-12.5,21.72-30,40.89-48.62,57.5-10.08,9-21.18,16.64-32.08,24.6-.94,.69-1.87,1.38-2.81,2.06,1.16-18.96,5.86-37.85,11.31-55.86Zm71.31,36.61c21.06-14.72,42.6-29.96,60.27-48.75,15.05-16,28.75-36.02,28.41-58.88-.3-20.24-13.59-35.75-31.79-43.27-48.29-19.94-104.06,4.54-135.67,42.69-18.38,22.17-30.46,49.77-37.2,77.61-3.34,13.81-5.43,27.89-6.62,42.03-.65,7.71-1.16,15.39-1.98,23.09-.43,3.97-.55,8.05-1.15,11.99-.91,5.94-3.14,6.99-7.93,10.6-22.39,16.88-47.69,30.01-70.65,46.22-22.6,15.95-44.44,32.96-64.82,51.69-40.63,37.35-74.88,81.43-97.96,131.72-22.13,48.22-33.61,103.7-15.31,155.08,14.92,41.88,46.92,75.21,86.2,95.31,45.85,23.47,105.23,31.84,155.54,20.31,17.44-3.99,34.74-9.5,51.63-15.35,2.11-.73,5.34-1.71,9.01-2.94,11.8,81.19,20.19,166.16-4.82,245.62-11.74,37.32-32.48,73.26-65.69,95.3-44.45,29.52-104.22,39.35-155.17,22.92-51.34-16.56-87-56.95-99.85-106.96,31.43,12.66,67.93,10.97,98.43-6.39,38.73-22.04,54.66-70.27,39.29-111.71-14.73-39.73-58.26-62.37-99.6-59.43-47.77,3.4-90.97,40.58-104.61,85.91-14.44,48.02,.06,104.05,26.81,145.11,13.49,20.72,31.19,34.53,49.04,50.97,17.42,16.05,36.32,26.95,59.1,33.81,93.37,28.12,203.41-1.1,262.83-79.67,32.89-43.48,52.56-97.51,55.82-151.84,1.97-33.04-.73-66.13-3.68-99.02-1.48-16.42-3.02-32.84-5.18-49.19-1.86-14.07-5.78-28.22-7.52-42.28,47.99-33.18,83.36-83.69,81.01-144.18-1.14-29.23-12.1-57.37-34.11-77.19-20.47-18.43-48.46-29.56-75.55-34.57-3.84-32.3-7.47-64.63-11.26-96.94-3.97-33.83-9.42-68.2-8.54-102.38,2.91-1.69,5.81-3.39,8.73-5.05,26.63-15.19,49.56-34.53,74.55-52Zm-127.53,84.55c-1.2,57.52,4.24,114.84,11.2,171.94-7.76,1.72-15.47,3.72-23.11,5.87-24.59,6.92-45.96,20.83-62.76,40.12-18.58,21.34-32.35,51.29-30.47,80.12,2.17,33.27,27.73,54.02,59.81,55.83,5.12,.29,26.39-5.2,19.21-13.89-3.57-4.32-11.54-6.31-16.21-9.63-5.36-3.81-10.11-8.77-13.17-14.63-7.01-13.42-7.85-30.92-3.2-45.12,10.96-33.51,43.44-47.28,75.95-47.4,7.55,65.59,14.43,131.38,25.18,196.54,0,.02,0,.04,0,.06,.62,4.14-20.62,9.37-25.95,10.75-13.71,3.55-27.88,6.71-42,8.09-44.16,4.32-92.68-15.67-124.31-45.8-38.46-36.63-53.55-87.46-46.51-139.61,7.23-53.48,34.46-101.77,69.78-141.8,20.02-22.69,42.68-43.1,65.64-62.75,19.61-16.78,39.71-33.69,60.94-48.67Z"/>
              <path class="cls-24" d="M600.91,1110.21c2.68,20.27-1.38,40.66-11,58.75-4.15,7.8-9.33,15.95-15.27,23.48-4.77-50.11-10.76-100.06-16.81-150.03,22.93,15.27,39.37,39.79,43.08,67.8Zm-59.06-428.17c7.07-23.39,15.84-46.23,31.72-65.12,6.91-7.42,14.71-14.06,24.41-17.5,1.33-.47,2.84-.98,4.36-1.36,.59,.3,2.99,.65,3.85,.87,3.68,.93,7.3,2.32,10.4,4.56,16.79,12.17,5.44,36.39-2.53,50.24-12.5,21.72-30,40.89-48.62,57.5-10.08,9-21.18,16.64-32.08,24.6-.94,.69-1.87,1.38-2.81,2.06,1.16-18.96,5.86-37.85,11.31-55.86Zm71.31,36.61c21.06-14.72,42.6-29.96,60.27-48.75,15.05-16,28.75-36.02,28.41-58.88-.3-20.24-13.59-35.75-31.79-43.27-48.29-19.94-104.06,4.54-135.67,42.69-18.38,22.17-30.46,49.77-37.2,77.6-3.34,13.81-5.43,27.89-6.62,42.03-.65,7.71-1.16,15.39-1.98,23.09-.43,3.97-.55,8.05-1.15,11.99-.91,5.94-3.14,6.99-7.93,10.6-22.39,16.88-47.69,30.01-70.65,46.22-22.6,15.95-44.44,32.96-64.82,51.69-40.63,37.35-74.88,81.43-97.96,131.72-22.13,48.22-33.61,103.7-15.31,155.08,14.92,41.88,46.92,75.21,86.2,95.31,45.85,23.47,105.23,31.84,155.54,20.31,17.44-3.99,34.74-9.5,51.63-15.35,2.11-.73,5.34-1.71,9.01-2.94,11.8,81.19,20.19,166.16-4.82,245.62-11.74,37.32-32.48,73.26-65.69,95.3-44.45,29.52-104.22,39.35-155.17,22.92-51.34-16.56-87-56.95-99.85-106.96,31.43,12.66,67.93,10.97,98.43-6.39,38.73-22.04,54.66-70.27,39.29-111.71-14.73-39.73-58.26-62.37-99.6-59.43-47.77,3.4-90.97,40.58-104.61,85.91-14.44,48.02,.06,104.05,26.81,145.11,13.49,20.72,31.19,34.53,49.04,50.97,17.42,16.05,36.32,26.95,59.1,33.81,93.37,28.12,203.41-1.1,262.83-79.67,32.89-43.48,52.56-97.51,55.82-151.84,1.97-33.04-.73-66.13-3.68-99.02-1.48-16.42-3.02-32.84-5.18-49.19-1.86-14.07-5.78-28.22-7.52-42.28,47.99-33.18,83.36-83.69,81.01-144.18-1.14-29.23-12.1-57.37-34.11-77.19-20.47-18.43-48.46-29.56-75.55-34.57-3.84-32.3-7.47-64.63-11.26-96.94-3.97-33.83-9.42-68.2-8.54-102.38,2.91-1.69,5.81-3.39,8.73-5.05,26.63-15.19,49.56-34.53,74.56-52Zm-127.53,84.55c-1.2,57.52,4.24,114.84,11.2,171.94-7.76,1.72-15.47,3.72-23.11,5.87-24.59,6.92-45.96,20.83-62.76,40.12-18.58,21.34-32.35,51.29-30.47,80.12,2.17,33.27,27.73,54.02,59.81,55.83,5.12,.29,26.39-5.2,19.21-13.89-3.57-4.32-11.54-6.31-16.21-9.63-5.36-3.8-10.11-8.77-13.17-14.63-7.01-13.42-7.85-30.92-3.2-45.12,10.96-33.51,43.44-47.28,75.95-47.4,7.55,65.59,14.43,131.38,25.18,196.54,0,.02,0,.04,0,.06,.62,4.14-20.62,9.37-25.95,10.75-13.71,3.55-27.88,6.71-42,8.09-44.16,4.32-92.68-15.67-124.31-45.8-38.46-36.63-53.55-87.46-46.51-139.61,7.23-53.48,34.46-101.77,69.78-141.8,20.02-22.69,42.68-43.1,65.64-62.75,19.61-16.78,39.71-33.69,60.94-48.67Z"/>
              <path class="cls-1" d="M605.81,1107.07c2.68,20.27-1.38,40.66-11,58.75-4.15,7.8-9.33,15.95-15.28,23.48-4.77-50.11-10.76-100.06-16.81-150.03,22.93,15.27,39.37,39.79,43.08,67.79Zm-59.06-428.17c7.07-23.39,15.84-46.23,31.72-65.12,6.91-7.42,14.71-14.06,24.41-17.5,1.33-.47,2.84-.98,4.36-1.36,.59,.3,2.99,.65,3.85,.87,3.68,.93,7.3,2.32,10.4,4.56,16.79,12.17,5.44,36.39-2.53,50.24-12.5,21.72-30,40.89-48.62,57.5-10.08,9-21.18,16.64-32.08,24.6-.94,.69-1.87,1.38-2.81,2.06,1.16-18.96,5.86-37.85,11.31-55.86Zm71.31,36.61c21.06-14.72,42.6-29.96,60.27-48.75,15.05-16,28.75-36.02,28.41-58.88-.3-20.24-13.59-35.75-31.79-43.27-48.29-19.94-104.06,4.54-135.67,42.69-18.38,22.17-30.46,49.77-37.2,77.6-3.34,13.81-5.43,27.89-6.62,42.03-.65,7.71-1.16,15.39-1.98,23.09-.43,3.97-.55,8.05-1.15,11.99-.91,5.94-3.14,6.99-7.93,10.6-22.39,16.88-47.69,30.01-70.65,46.22-22.6,15.95-44.44,32.96-64.82,51.69-40.63,37.35-74.88,81.43-97.96,131.72-22.13,48.22-33.61,103.7-15.31,155.08,14.92,41.88,46.92,75.21,86.2,95.31,45.85,23.47,105.23,31.84,155.54,20.31,17.44-3.99,34.74-9.5,51.63-15.35,2.11-.73,5.34-1.71,9.01-2.94,11.8,81.19,20.19,166.16-4.82,245.62-11.74,37.32-32.48,73.26-65.69,95.3-44.45,29.52-104.22,39.35-155.17,22.92-51.34-16.56-87-56.95-99.85-106.96,31.43,12.66,67.93,10.97,98.43-6.39,38.73-22.04,54.66-70.27,39.29-111.71-14.73-39.73-58.26-62.37-99.6-59.43-47.77,3.4-90.97,40.58-104.61,85.91-14.44,48.02,.06,104.05,26.81,145.11,13.49,20.72,31.19,34.53,49.04,50.97,17.42,16.05,36.32,26.95,59.1,33.81,93.37,28.12,203.41-1.1,262.83-79.67,32.89-43.48,52.56-97.51,55.82-151.84,1.97-33.04-.73-66.13-3.68-99.02-1.48-16.42-3.02-32.84-5.18-49.19-1.86-14.07-5.78-28.22-7.52-42.28,47.99-33.18,83.36-83.69,81.01-144.18-1.14-29.23-12.1-57.37-34.11-77.19-20.47-18.43-48.46-29.56-75.55-34.57-3.84-32.3-7.47-64.63-11.26-96.94-3.97-33.83-9.42-68.2-8.54-102.38,2.91-1.69,5.81-3.39,8.73-5.05,26.63-15.19,49.56-34.53,74.55-52Zm-127.53,84.55c-1.2,57.52,4.24,114.84,11.2,171.94-7.76,1.72-15.47,3.72-23.11,5.87-24.59,6.92-45.96,20.83-62.76,40.12-18.58,21.34-32.35,51.29-30.47,80.12,2.17,33.27,27.73,54.02,59.81,55.83,5.12,.29,26.39-5.2,19.21-13.89-3.57-4.32-11.54-6.31-16.21-9.63-5.36-3.81-10.11-8.77-13.17-14.63-7.01-13.42-7.85-30.92-3.2-45.12,10.96-33.51,43.44-47.28,75.95-47.4,7.55,65.59,14.43,131.38,25.18,196.54,0,.02,0,.04,0,.06,.62,4.14-20.62,9.37-25.95,10.75-13.71,3.55-27.88,6.71-42,8.09-44.16,4.32-92.68-15.67-124.31-45.8-38.46-36.63-53.55-87.46-46.51-139.61,7.23-53.48,34.46-101.77,69.78-141.8,20.02-22.69,42.68-43.1,65.64-62.75,19.61-16.78,39.71-33.69,60.94-48.67Z"/>
              <path class="cls-23" d="M610.7,1103.93c2.68,20.27-1.38,40.66-11,58.75-4.15,7.8-9.33,15.95-15.27,23.48-4.77-50.11-10.76-100.06-16.81-150.03,22.93,15.27,39.37,39.79,43.08,67.8Zm-59.06-428.17c7.07-23.39,15.84-46.23,31.72-65.12,6.91-7.42,14.71-14.06,24.4-17.5,1.33-.47,2.84-.98,4.36-1.36,.59,.3,2.99,.65,3.85,.87,3.68,.93,7.3,2.32,10.4,4.56,16.78,12.17,5.44,36.39-2.53,50.24-12.5,21.72-30,40.89-48.62,57.5-10.08,9-21.18,16.64-32.08,24.6-.94,.69-1.87,1.38-2.81,2.06,1.16-18.96,5.86-37.85,11.31-55.86Zm71.31,36.61c21.06-14.72,42.6-29.96,60.27-48.75,15.05-16,28.75-36.02,28.41-58.88-.3-20.24-13.59-35.75-31.79-43.27-48.29-19.94-104.06,4.54-135.67,42.69-18.38,22.17-30.46,49.77-37.2,77.6-3.34,13.81-5.43,27.89-6.62,42.03-.65,7.71-1.16,15.39-1.98,23.09-.43,3.97-.55,8.05-1.15,11.99-.91,5.94-3.14,6.99-7.93,10.6-22.39,16.88-47.69,30.01-70.65,46.22-22.6,15.95-44.44,32.96-64.82,51.69-40.63,37.35-74.88,81.43-97.96,131.72-22.13,48.22-33.61,103.7-15.31,155.08,14.92,41.88,46.92,75.21,86.2,95.31,45.85,23.47,105.23,31.84,155.54,20.31,17.44-3.99,34.74-9.5,51.63-15.35,2.11-.73,5.34-1.71,9.01-2.94,11.8,81.19,20.19,166.16-4.82,245.62-11.74,37.32-32.48,73.26-65.69,95.3-44.45,29.52-104.22,39.35-155.17,22.92-51.34-16.56-87-56.95-99.85-106.96,31.43,12.66,67.93,10.97,98.43-6.39,38.73-22.04,54.66-70.27,39.29-111.71-14.73-39.73-58.26-62.37-99.6-59.43-47.77,3.4-90.97,40.58-104.61,85.91-14.44,48.02,.06,104.05,26.81,145.11,13.49,20.72,31.19,34.53,49.04,50.97,17.42,16.05,36.32,26.95,59.1,33.81,93.37,28.12,203.41-1.1,262.83-79.67,32.89-43.48,52.56-97.51,55.82-151.84,1.97-33.04-.73-66.13-3.68-99.02-1.48-16.42-3.02-32.84-5.18-49.19-1.86-14.07-5.78-28.22-7.52-42.28,47.99-33.18,83.36-83.69,81.01-144.18-1.14-29.23-12.1-57.37-34.11-77.19-20.47-18.43-48.46-29.56-75.55-34.57-3.84-32.3-7.47-64.63-11.26-96.94-3.97-33.83-9.42-68.2-8.54-102.38,2.91-1.69,5.81-3.39,8.73-5.05,26.63-15.19,49.56-34.53,74.56-52Zm-127.53,84.55c-1.2,57.52,4.24,114.84,11.2,171.94-7.76,1.72-15.47,3.72-23.11,5.87-24.59,6.92-45.96,20.83-62.76,40.12-18.58,21.34-32.35,51.29-30.47,80.12,2.17,33.27,27.73,54.02,59.81,55.83,5.12,.29,26.39-5.2,19.21-13.89-3.57-4.32-11.54-6.31-16.21-9.63-5.36-3.81-10.11-8.77-13.17-14.63-7.01-13.42-7.85-30.92-3.2-45.12,10.96-33.51,43.44-47.28,75.95-47.4,7.55,65.59,14.43,131.38,25.18,196.54,0,.02,0,.04,0,.06,.62,4.14-20.62,9.37-25.95,10.75-13.71,3.55-27.88,6.71-42,8.09-44.16,4.32-92.68-15.67-124.31-45.8-38.46-36.63-53.55-87.46-46.51-139.61,7.23-53.48,34.46-101.77,69.78-141.8,20.02-22.69,42.68-43.1,65.64-62.75,19.61-16.78,39.71-33.69,60.94-48.67Z"/>
              <path class="cls-28" d="M615.59,1100.79c2.68,20.27-1.38,40.66-11,58.75-4.15,7.8-9.33,15.95-15.27,23.48-4.77-50.11-10.76-100.06-16.81-150.03,22.93,15.27,39.37,39.79,43.08,67.8Zm-59.06-428.17c7.07-23.39,15.84-46.23,31.72-65.12,6.91-7.42,14.71-14.06,24.41-17.5,1.33-.47,2.84-.98,4.36-1.36,.59,.3,2.99,.65,3.85,.87,3.68,.93,7.3,2.32,10.4,4.56,16.79,12.17,5.44,36.39-2.53,50.24-12.5,21.72-30,40.89-48.62,57.5-10.08,9-21.18,16.64-32.08,24.6-.94,.69-1.87,1.38-2.81,2.06,1.16-18.96,5.86-37.85,11.31-55.86Zm71.31,36.61c21.06-14.72,42.6-29.96,60.27-48.75,15.05-16,28.75-36.02,28.41-58.88-.3-20.24-13.59-35.75-31.79-43.27-48.29-19.94-104.06,4.54-135.67,42.69-18.38,22.17-30.46,49.77-37.2,77.6-3.34,13.81-5.43,27.89-6.62,42.03-.65,7.71-1.16,15.39-1.98,23.09-.43,3.97-.55,8.05-1.15,11.99-.91,5.94-3.14,6.99-7.93,10.6-22.39,16.88-47.69,30.01-70.65,46.22-22.6,15.95-44.44,32.96-64.82,51.69-40.63,37.35-74.88,81.43-97.96,131.72-22.13,48.22-33.61,103.7-15.31,155.08,14.92,41.88,46.92,75.21,86.2,95.31,45.85,23.47,105.23,31.84,155.54,20.31,17.44-3.99,34.74-9.5,51.63-15.35,2.11-.73,5.34-1.71,9.01-2.94,11.8,81.19,20.19,166.16-4.82,245.62-11.74,37.32-32.48,73.26-65.69,95.3-44.45,29.52-104.22,39.35-155.17,22.92-51.34-16.56-87-56.95-99.85-106.96,31.43,12.66,67.93,10.97,98.43-6.39,38.73-22.04,54.66-70.27,39.29-111.71-14.73-39.73-58.26-62.37-99.6-59.43-47.77,3.4-90.97,40.58-104.61,85.91-14.44,48.02,.06,104.05,26.81,145.11,13.49,20.72,31.19,34.53,49.04,50.97,17.42,16.05,36.32,26.95,59.1,33.81,93.37,28.12,203.41-1.1,262.83-79.67,32.89-43.48,52.56-97.51,55.82-151.84,1.97-33.04-.73-66.13-3.68-99.02-1.48-16.42-3.02-32.84-5.18-49.19-1.86-14.07-5.78-28.22-7.52-42.28,47.99-33.18,83.36-83.69,81.01-144.18-1.14-29.23-12.1-57.37-34.11-77.19-20.47-18.43-48.46-29.56-75.55-34.57-3.84-32.3-7.47-64.63-11.26-96.94-3.97-33.83-9.42-68.2-8.54-102.38,2.91-1.69,5.81-3.39,8.73-5.05,26.63-15.19,49.56-34.53,74.56-52Zm-127.53,84.55c-1.2,57.52,4.24,114.84,11.2,171.94-7.76,1.72-15.47,3.72-23.11,5.87-24.59,6.92-45.96,20.83-62.76,40.12-18.58,21.34-32.35,51.29-30.47,80.12,2.17,33.27,27.73,54.02,59.81,55.83,5.12,.29,26.39-5.2,19.21-13.89-3.57-4.32-11.54-6.31-16.21-9.63-5.36-3.8-10.11-8.77-13.17-14.63-7.01-13.42-7.85-30.92-3.2-45.12,10.96-33.51,43.44-47.28,75.95-47.4,7.55,65.59,14.43,131.38,25.18,196.54,0,.02,0,.04,0,.06,.62,4.14-20.62,9.37-25.95,10.75-13.71,3.55-27.88,6.71-42,8.09-44.16,4.32-92.68-15.67-124.31-45.8-38.46-36.63-53.55-87.46-46.51-139.61,7.23-53.48,34.46-101.77,69.78-141.8,20.02-22.69,42.68-43.1,65.64-62.75,19.61-16.78,39.71-33.69,60.94-48.67Z"/>
              <path class="cls-16" d="M620.48,1097.64c2.68,20.27-1.38,40.66-11,58.75-4.15,7.8-9.33,15.95-15.27,23.49-4.77-50.11-10.76-100.06-16.81-150.03,22.93,15.27,39.37,39.79,43.08,67.79Zm-59.06-428.17c7.07-23.39,15.84-46.23,31.72-65.12,6.91-7.42,14.71-14.06,24.4-17.5,1.33-.47,2.84-.98,4.36-1.36,.59,.3,2.99,.65,3.85,.87,3.68,.93,7.3,2.32,10.4,4.56,16.78,12.17,5.44,36.39-2.53,50.24-12.5,21.72-30,40.89-48.62,57.5-10.08,9-21.18,16.64-32.08,24.6-.94,.69-1.87,1.38-2.81,2.06,1.16-18.96,5.86-37.85,11.31-55.86Zm71.31,36.61c21.06-14.72,42.6-29.96,60.27-48.75,15.05-16,28.75-36.02,28.41-58.88-.3-20.24-13.59-35.75-31.79-43.27-48.29-19.94-104.06,4.54-135.67,42.69-18.38,22.17-30.46,49.77-37.2,77.6-3.34,13.81-5.43,27.89-6.62,42.03-.65,7.71-1.16,15.39-1.98,23.09-.43,3.97-.55,8.05-1.15,11.99-.91,5.94-3.14,6.99-7.93,10.6-22.39,16.88-47.69,30.01-70.65,46.22-22.6,15.95-44.44,32.96-64.82,51.69-40.63,37.35-74.88,81.43-97.96,131.72-22.13,48.22-33.61,103.7-15.31,155.08,14.92,41.88,46.92,75.21,86.2,95.31,45.85,23.47,105.23,31.84,155.54,20.31,17.44-3.99,34.74-9.5,51.63-15.35,2.11-.73,5.34-1.71,9.01-2.94,11.8,81.19,20.19,166.16-4.82,245.62-11.74,37.32-32.48,73.26-65.69,95.3-44.45,29.52-104.22,39.35-155.17,22.92-51.34-16.56-87-56.95-99.85-106.96,31.43,12.66,67.93,10.97,98.43-6.39,38.73-22.04,54.66-70.27,39.29-111.71-14.73-39.73-58.26-62.37-99.6-59.43-47.77,3.4-90.97,40.58-104.61,85.91-14.44,48.02,.06,104.05,26.81,145.11,13.49,20.72,31.19,34.53,49.04,50.97,17.42,16.05,36.32,26.95,59.1,33.81,93.37,28.12,203.41-1.1,262.83-79.67,32.89-43.48,52.56-97.51,55.82-151.84,1.97-33.04-.73-66.13-3.68-99.02-1.48-16.42-3.02-32.84-5.18-49.19-1.86-14.07-5.78-28.22-7.52-42.28,47.99-33.18,83.36-83.69,81.01-144.18-1.14-29.23-12.1-57.37-34.11-77.19-20.47-18.43-48.46-29.56-75.55-34.57-3.84-32.3-7.47-64.63-11.26-96.94-3.97-33.83-9.42-68.2-8.54-102.38,2.91-1.69,5.81-3.39,8.73-5.05,26.63-15.19,49.56-34.53,74.56-52Zm-127.53,84.55c-1.2,57.52,4.24,114.84,11.2,171.94-7.76,1.72-15.47,3.72-23.11,5.87-24.59,6.92-45.96,20.83-62.76,40.12-18.58,21.34-32.35,51.29-30.47,80.12,2.17,33.27,27.73,54.02,59.81,55.83,5.12,.29,26.39-5.2,19.21-13.89-3.57-4.32-11.53-6.31-16.21-9.63-5.36-3.81-10.11-8.77-13.17-14.64-7.01-13.42-7.85-30.92-3.2-45.12,10.96-33.51,43.44-47.28,75.95-47.4,7.55,65.59,14.43,131.38,25.18,196.54,0,.02,0,.04,0,.06,.62,4.14-20.62,9.37-25.95,10.75-13.71,3.55-27.88,6.71-42,8.09-44.16,4.32-92.68-15.67-124.31-45.8-38.46-36.63-53.55-87.46-46.51-139.61,7.23-53.48,34.46-101.77,69.78-141.8,20.02-22.69,42.68-43.1,65.64-62.75,19.61-16.78,39.71-33.69,60.94-48.67Z"/>
              <path class="cls-8" d="M625.38,1094.5c2.68,20.27-1.38,40.66-11,58.75-4.15,7.8-9.33,15.95-15.27,23.49-4.77-50.11-10.76-100.06-16.81-150.03,22.93,15.27,39.37,39.79,43.08,67.8Zm-59.06-428.17c7.07-23.39,15.84-46.23,31.72-65.12,6.91-7.42,14.71-14.06,24.41-17.5,1.33-.47,2.84-.98,4.36-1.36,.59,.3,2.99,.65,3.85,.87,3.68,.93,7.3,2.32,10.4,4.56,16.78,12.17,5.44,36.39-2.53,50.24-12.5,21.72-30,40.89-48.62,57.5-10.08,9-21.18,16.64-32.08,24.6-.94,.69-1.87,1.38-2.81,2.06,1.16-18.96,5.86-37.85,11.31-55.86Zm71.31,36.61c21.06-14.72,42.6-29.96,60.27-48.75,15.05-16,28.75-36.02,28.41-58.88-.3-20.24-13.59-35.75-31.79-43.27-48.29-19.94-104.06,4.54-135.67,42.69-18.38,22.17-30.46,49.77-37.2,77.6-3.34,13.81-5.43,27.89-6.62,42.03-.65,7.71-1.16,15.39-1.98,23.09-.43,3.97-.55,8.05-1.15,11.99-.91,5.94-3.14,6.99-7.93,10.6-22.39,16.88-47.69,30.01-70.65,46.22-22.6,15.95-44.44,32.96-64.82,51.69-40.63,37.35-74.88,81.43-97.96,131.72-22.13,48.22-33.61,103.7-15.31,155.08,14.92,41.88,46.92,75.21,86.2,95.31,45.85,23.47,105.23,31.84,155.54,20.31,17.44-3.99,34.74-9.5,51.63-15.35,2.11-.73,5.34-1.71,9.01-2.94,11.8,81.19,20.19,166.16-4.82,245.62-11.74,37.32-32.48,73.26-65.69,95.3-44.45,29.52-104.22,39.35-155.17,22.92-51.34-16.56-87-56.95-99.85-106.96,31.43,12.66,67.93,10.97,98.43-6.39,38.73-22.04,54.66-70.27,39.29-111.71-14.73-39.73-58.26-62.37-99.6-59.43-47.77,3.4-90.97,40.58-104.61,85.91-14.44,48.02,.06,104.05,26.81,145.11,13.49,20.72,31.19,34.53,49.04,50.97,17.42,16.05,36.32,26.95,59.1,33.81,93.37,28.12,203.41-1.1,262.83-79.67,32.89-43.48,52.56-97.51,55.82-151.84,1.97-33.04-.73-66.13-3.68-99.02-1.48-16.42-3.02-32.84-5.18-49.19-1.86-14.07-5.78-28.22-7.52-42.28,47.99-33.18,83.36-83.69,81.01-144.18-1.14-29.23-12.1-57.37-34.11-77.19-20.47-18.43-48.46-29.56-75.55-34.57-3.84-32.3-7.47-64.63-11.26-96.94-3.97-33.83-9.42-68.2-8.54-102.38,2.91-1.69,5.81-3.39,8.73-5.05,26.63-15.19,49.56-34.53,74.56-52Zm-127.53,84.55c-1.2,57.52,4.24,114.84,11.2,171.94-7.76,1.72-15.47,3.72-23.11,5.87-24.59,6.92-45.96,20.83-62.76,40.12-18.58,21.34-32.35,51.29-30.47,80.12,2.17,33.27,27.73,54.02,59.81,55.83,5.12,.29,26.39-5.2,19.21-13.89-3.57-4.32-11.53-6.31-16.21-9.63-5.36-3.81-10.11-8.77-13.17-14.64-7.01-13.42-7.85-30.92-3.2-45.12,10.96-33.51,43.44-47.28,75.95-47.4,7.55,65.59,14.43,131.38,25.18,196.54,0,.02,0,.04,0,.06,.62,4.14-20.62,9.37-25.95,10.75-13.71,3.55-27.88,6.71-42,8.09-44.16,4.32-92.68-15.67-124.31-45.8-38.46-36.63-53.55-87.46-46.51-139.61,7.23-53.48,34.46-101.77,69.78-141.8,20.02-22.69,42.68-43.1,65.64-62.75,19.61-16.78,39.71-33.69,60.94-48.67Z"/>
              <path class="cls-19" d="M630.27,1091.36c2.68,20.27-1.38,40.66-11,58.75-4.15,7.8-9.33,15.95-15.27,23.49-4.77-50.11-10.76-100.06-16.81-150.03,22.93,15.27,39.37,39.79,43.08,67.8Zm-59.06-428.17c7.07-23.39,15.84-46.23,31.72-65.12,6.91-7.42,14.71-14.06,24.4-17.5,1.33-.47,2.84-.98,4.36-1.36,.59,.3,2.99,.65,3.85,.87,3.68,.93,7.3,2.32,10.4,4.56,16.78,12.17,5.44,36.39-2.53,50.24-12.5,21.72-30,40.89-48.62,57.5-10.08,9-21.18,16.64-32.08,24.6-.94,.69-1.87,1.38-2.81,2.06,1.16-18.96,5.86-37.85,11.31-55.86Zm71.31,36.61c21.06-14.72,42.6-29.96,60.27-48.75,15.05-16,28.75-36.02,28.41-58.88-.3-20.24-13.59-35.75-31.79-43.27-48.29-19.94-104.06,4.54-135.67,42.69-18.38,22.17-30.47,49.77-37.2,77.6-3.34,13.81-5.43,27.89-6.62,42.03-.65,7.71-1.16,15.39-1.98,23.09-.43,3.97-.55,8.05-1.15,11.99-.91,5.94-3.14,6.99-7.93,10.6-22.39,16.88-47.69,30.01-70.65,46.22-22.6,15.95-44.44,32.96-64.82,51.69-40.63,37.35-74.88,81.43-97.96,131.72-22.13,48.22-33.61,103.7-15.31,155.08,14.92,41.88,46.92,75.21,86.2,95.31,45.85,23.47,105.23,31.84,155.54,20.31,17.44-3.99,34.74-9.5,51.63-15.35,2.11-.73,5.34-1.71,9.01-2.94,11.8,81.19,20.19,166.16-4.82,245.62-11.74,37.32-32.48,73.26-65.69,95.3-44.45,29.52-104.22,39.35-155.17,22.92-51.34-16.56-87-56.95-99.85-106.96,31.43,12.66,67.93,10.97,98.43-6.39,38.73-22.04,54.66-70.27,39.29-111.71-14.73-39.73-58.26-62.37-99.6-59.43-47.77,3.4-90.97,40.58-104.61,85.91-14.44,48.02,.06,104.05,26.81,145.11,13.49,20.72,31.19,34.53,49.04,50.97,17.42,16.05,36.32,26.95,59.1,33.81,93.37,28.12,203.41-1.1,262.83-79.67,32.89-43.48,52.56-97.51,55.82-151.84,1.97-33.04-.73-66.13-3.68-99.02-1.48-16.42-3.02-32.84-5.18-49.19-1.86-14.07-5.78-28.22-7.52-42.28,47.99-33.18,83.36-83.69,81.01-144.18-1.14-29.23-12.1-57.37-34.11-77.19-20.47-18.43-48.46-29.56-75.55-34.57-3.84-32.3-7.47-64.63-11.26-96.94-3.97-33.83-9.42-68.2-8.54-102.38,2.91-1.69,5.81-3.39,8.73-5.05,26.63-15.19,49.56-34.53,74.56-52Zm-127.53,84.55c-1.2,57.52,4.24,114.84,11.2,171.94-7.76,1.72-15.47,3.72-23.11,5.87-24.59,6.92-45.96,20.83-62.76,40.12-18.58,21.34-32.35,51.29-30.47,80.12,2.17,33.27,27.73,54.02,59.81,55.83,5.12,.29,26.39-5.2,19.21-13.89-3.57-4.32-11.53-6.31-16.21-9.63-5.36-3.8-10.11-8.77-13.17-14.63-7.01-13.42-7.85-30.92-3.2-45.12,10.96-33.51,43.44-47.28,75.95-47.4,7.55,65.59,14.43,131.38,25.18,196.54,0,.02,0,.04,0,.06,.62,4.14-20.62,9.37-25.95,10.75-13.71,3.55-27.88,6.71-42,8.09-44.16,4.32-92.68-15.67-124.31-45.8-38.46-36.63-53.55-87.46-46.51-139.61,7.23-53.48,34.46-101.77,69.78-141.8,20.02-22.69,42.68-43.1,65.64-62.75,19.61-16.78,39.71-33.69,60.94-48.67Z"/>
              <path class="cls-30" d="M635.16,1088.22c2.68,20.27-1.38,40.66-11,58.75-4.15,7.8-9.33,15.95-15.27,23.49-4.77-50.11-10.76-100.06-16.81-150.03,22.93,15.27,39.37,39.79,43.08,67.79Zm-59.06-428.17c7.07-23.39,15.84-46.23,31.72-65.12,6.91-7.42,14.71-14.06,24.41-17.5,1.33-.47,2.84-.98,4.36-1.36,.59,.3,2.99,.65,3.85,.87,3.68,.93,7.3,2.32,10.4,4.56,16.78,12.17,5.44,36.39-2.53,50.24-12.5,21.72-30,40.89-48.62,57.5-10.08,9-21.18,16.64-32.08,24.6-.94,.69-1.87,1.38-2.81,2.06,1.16-18.96,5.86-37.85,11.31-55.86Zm71.31,36.61c21.06-14.72,42.6-29.96,60.27-48.75,15.05-16,28.75-36.02,28.41-58.88-.3-20.24-13.59-35.75-31.79-43.27-48.29-19.94-104.06,4.54-135.67,42.69-18.38,22.17-30.46,49.77-37.2,77.6-3.34,13.81-5.43,27.89-6.62,42.03-.65,7.71-1.16,15.39-1.98,23.09-.43,3.97-.55,8.05-1.15,11.99-.91,5.94-3.14,6.99-7.93,10.6-22.39,16.88-47.69,30.01-70.65,46.22-22.6,15.95-44.44,32.96-64.82,51.69-40.63,37.35-74.88,81.43-97.96,131.72-22.13,48.22-33.61,103.7-15.31,155.08,14.92,41.88,46.92,75.21,86.2,95.31,45.85,23.47,105.23,31.84,155.54,20.31,17.44-3.99,34.74-9.5,51.63-15.35,2.11-.73,5.34-1.71,9.01-2.94,11.8,81.19,20.19,166.16-4.82,245.62-11.74,37.32-32.48,73.26-65.69,95.3-44.45,29.52-104.22,39.35-155.17,22.92-51.34-16.56-87-56.95-99.85-106.96,31.43,12.66,67.93,10.97,98.43-6.39,38.73-22.04,54.66-70.27,39.29-111.71-14.73-39.73-58.26-62.37-99.6-59.43-47.77,3.4-90.97,40.58-104.61,85.91-14.44,48.02,.06,104.05,26.81,145.11,13.49,20.72,31.19,34.53,49.04,50.97,17.42,16.05,36.32,26.95,59.1,33.81,93.37,28.12,203.41-1.1,262.83-79.67,32.89-43.48,52.56-97.51,55.82-151.84,1.97-33.04-.73-66.13-3.68-99.02-1.48-16.42-3.02-32.84-5.18-49.19-1.86-14.07-5.78-28.22-7.52-42.28,47.99-33.18,83.36-83.69,81.01-144.18-1.14-29.23-12.1-57.37-34.11-77.19-20.47-18.43-48.46-29.56-75.55-34.57-3.84-32.3-7.47-64.63-11.26-96.94-3.97-33.83-9.42-68.2-8.54-102.38,2.91-1.69,5.81-3.39,8.73-5.05,26.63-15.19,49.56-34.53,74.56-52Zm-127.53,84.55c-1.2,57.52,4.24,114.84,11.2,171.94-7.76,1.72-15.47,3.72-23.11,5.87-24.59,6.92-45.96,20.83-62.76,40.12-18.58,21.34-32.35,51.29-30.47,80.12,2.17,33.27,27.73,54.02,59.81,55.83,5.12,.29,26.39-5.2,19.21-13.89-3.57-4.32-11.53-6.31-16.21-9.63-5.36-3.81-10.11-8.77-13.17-14.64-7.01-13.42-7.85-30.92-3.2-45.12,10.96-33.51,43.44-47.28,75.95-47.4,7.55,65.59,14.43,131.38,25.18,196.54,0,.02,0,.04,0,.06,.62,4.14-20.62,9.37-25.95,10.75-13.71,3.55-27.88,6.71-42,8.09-44.16,4.32-92.68-15.67-124.31-45.8-38.46-36.63-53.55-87.46-46.51-139.61,7.23-53.48,34.46-101.77,69.78-141.8,20.02-22.69,42.68-43.1,65.64-62.75,19.61-16.78,39.71-33.69,60.94-48.67Z"/>
              <path class="cls-21" d="M640.06,1085.08c2.68,20.27-1.38,40.66-11,58.75-4.15,7.8-9.33,15.95-15.27,23.49-4.77-50.11-10.76-100.06-16.81-150.03,22.93,15.27,39.37,39.79,43.08,67.8Zm-59.06-428.17c7.07-23.39,15.84-46.23,31.72-65.12,6.91-7.42,14.71-14.06,24.4-17.5,1.33-.47,2.84-.98,4.36-1.36,.59,.3,2.99,.65,3.85,.87,3.68,.93,7.3,2.32,10.4,4.56,16.78,12.17,5.44,36.39-2.53,50.24-12.5,21.72-30,40.89-48.62,57.5-10.08,9-21.18,16.64-32.08,24.6-.94,.69-1.87,1.38-2.81,2.06,1.16-18.96,5.86-37.85,11.31-55.86Zm71.31,36.61c21.06-14.72,42.6-29.96,60.27-48.75,15.05-16,28.75-36.02,28.41-58.88-.3-20.24-13.59-35.75-31.79-43.27-48.29-19.94-104.06,4.54-135.67,42.69-18.38,22.17-30.47,49.77-37.2,77.6-3.34,13.81-5.43,27.89-6.62,42.03-.65,7.71-1.16,15.39-1.98,23.09-.43,3.97-.55,8.05-1.15,11.99-.91,5.94-3.14,6.99-7.93,10.6-22.39,16.88-47.69,30.01-70.65,46.22-22.6,15.95-44.44,32.96-64.82,51.69-40.63,37.35-74.88,81.43-97.96,131.72-22.13,48.22-33.61,103.7-15.31,155.08,14.92,41.88,46.92,75.21,86.2,95.31,45.85,23.47,105.23,31.84,155.54,20.31,17.44-3.99,34.74-9.5,51.63-15.35,2.11-.73,5.34-1.71,9.01-2.94,11.8,81.19,20.19,166.16-4.82,245.62-11.74,37.32-32.48,73.26-65.69,95.3-44.45,29.52-104.22,39.35-155.17,22.92-51.34-16.56-87-56.95-99.85-106.96,31.43,12.66,67.93,10.97,98.43-6.39,38.73-22.04,54.66-70.27,39.29-111.71-14.73-39.73-58.26-62.37-99.6-59.43-47.77,3.4-90.97,40.58-104.61,85.91-14.44,48.02,.06,104.05,26.81,145.11,13.5,20.72,31.19,34.53,49.04,50.97,17.42,16.05,36.32,26.95,59.1,33.81,93.37,28.12,203.41-1.1,262.83-79.67,32.89-43.48,52.56-97.51,55.82-151.84,1.97-33.04-.73-66.13-3.68-99.02-1.48-16.42-3.02-32.84-5.18-49.19-1.86-14.07-5.78-28.22-7.52-42.28,47.99-33.18,83.36-83.69,81.01-144.18-1.14-29.23-12.1-57.37-34.11-77.19-20.47-18.43-48.46-29.56-75.55-34.57-3.84-32.3-7.47-64.63-11.26-96.94-3.97-33.83-9.42-68.2-8.54-102.38,2.91-1.69,5.81-3.39,8.73-5.05,26.63-15.19,49.56-34.53,74.56-52Zm-127.53,84.55c-1.2,57.52,4.24,114.84,11.2,171.94-7.76,1.72-15.47,3.72-23.11,5.87-24.59,6.92-45.96,20.83-62.76,40.12-18.58,21.34-32.35,51.29-30.47,80.12,2.17,33.27,27.73,54.02,59.81,55.83,5.12,.29,26.39-5.2,19.21-13.89-3.57-4.32-11.53-6.31-16.21-9.63-5.36-3.81-10.11-8.77-13.17-14.64-7.01-13.42-7.85-30.92-3.2-45.12,10.96-33.51,43.44-47.28,75.95-47.4,7.55,65.59,14.43,131.38,25.18,196.54,0,.02,0,.04,0,.06,.62,4.14-20.62,9.37-25.95,10.75-13.71,3.55-27.88,6.71-42,8.09-44.16,4.32-92.68-15.67-124.31-45.8-38.46-36.63-53.55-87.46-46.51-139.61,7.23-53.48,34.46-101.77,69.78-141.8,20.02-22.69,42.68-43.1,65.64-62.75,19.61-16.78,39.71-33.69,60.94-48.67Z"/>
              <path class="cls-11" d="M644.95,1081.94c2.68,20.27-1.38,40.66-11,58.75-4.15,7.8-9.33,15.95-15.27,23.49-4.77-50.11-10.76-100.06-16.81-150.03,22.93,15.27,39.37,39.79,43.08,67.8Zm-59.06-428.17c7.07-23.39,15.84-46.23,31.72-65.12,6.91-7.42,14.71-14.06,24.4-17.5,1.33-.47,2.84-.98,4.36-1.36,.59,.3,2.99,.65,3.85,.87,3.68,.93,7.3,2.32,10.4,4.56,16.78,12.17,5.44,36.39-2.53,50.24-12.5,21.72-30,40.89-48.62,57.5-10.08,9-21.18,16.64-32.08,24.6-.94,.69-1.87,1.38-2.81,2.06,1.16-18.96,5.86-37.85,11.31-55.86Zm71.31,36.61c21.06-14.72,42.6-29.96,60.27-48.75,15.05-16,28.75-36.02,28.41-58.88-.3-20.24-13.59-35.75-31.79-43.27-48.29-19.94-104.06,4.54-135.67,42.69-18.38,22.17-30.47,49.77-37.2,77.6-3.34,13.81-5.43,27.89-6.62,42.03-.65,7.71-1.16,15.39-1.98,23.09-.43,3.97-.55,8.05-1.15,11.99-.91,5.94-3.14,6.99-7.93,10.6-22.39,16.88-47.69,30.01-70.65,46.22-22.6,15.95-44.44,32.96-64.82,51.69-40.63,37.35-74.88,81.43-97.96,131.72-22.13,48.22-33.61,103.7-15.31,155.08,14.92,41.88,46.92,75.21,86.2,95.31,45.85,23.47,105.23,31.84,155.54,20.31,17.44-3.99,34.74-9.5,51.63-15.35,2.11-.73,5.34-1.71,9.01-2.94,11.8,81.19,20.19,166.16-4.82,245.62-11.74,37.32-32.48,73.26-65.69,95.3-44.45,29.52-104.22,39.35-155.17,22.92-51.34-16.56-87-56.95-99.85-106.96,31.43,12.66,67.93,10.97,98.43-6.39,38.73-22.04,54.66-70.27,39.29-111.71-14.73-39.73-58.26-62.37-99.6-59.43-47.77,3.4-90.97,40.58-104.61,85.91-14.44,48.02,.06,104.05,26.81,145.11,13.49,20.72,31.19,34.53,49.04,50.97,17.42,16.05,36.32,26.95,59.1,33.81,93.37,28.12,203.41-1.1,262.83-79.67,32.89-43.48,52.56-97.51,55.82-151.84,1.97-33.04-.73-66.13-3.68-99.02-1.48-16.42-3.02-32.84-5.18-49.19-1.86-14.07-5.78-28.22-7.52-42.28,47.99-33.18,83.36-83.69,81.01-144.18-1.14-29.23-12.1-57.37-34.11-77.19-20.47-18.43-48.46-29.56-75.55-34.57-3.84-32.3-7.47-64.63-11.26-96.94-3.97-33.83-9.42-68.2-8.54-102.38,2.91-1.69,5.81-3.39,8.73-5.05,26.63-15.19,49.56-34.53,74.56-52Zm-127.53,84.55c-1.2,57.52,4.24,114.84,11.2,171.94-7.76,1.72-15.47,3.72-23.11,5.87-24.59,6.92-45.96,20.83-62.76,40.12-18.58,21.34-32.35,51.29-30.47,80.12,2.17,33.27,27.73,54.02,59.81,55.83,5.12,.29,26.39-5.2,19.21-13.89-3.57-4.32-11.53-6.31-16.21-9.63-5.36-3.8-10.11-8.77-13.17-14.63-7.01-13.42-7.85-30.92-3.2-45.12,10.96-33.51,43.44-47.28,75.95-47.4,7.55,65.59,14.43,131.38,25.18,196.54,0,.02,0,.04,0,.06,.62,4.14-20.62,9.37-25.95,10.75-13.71,3.55-27.88,6.71-42,8.09-44.16,4.32-92.68-15.67-124.31-45.8-38.46-36.63-53.55-87.46-46.51-139.61,7.23-53.48,34.46-101.77,69.78-141.8,20.02-22.69,42.68-43.1,65.64-62.75,19.61-16.78,39.71-33.69,60.94-48.67Z"/>
              <path class="cls-10" d="M649.84,1078.8c2.68,20.27-1.38,40.66-11,58.75-4.15,7.8-9.33,15.95-15.27,23.49-4.77-50.11-10.76-100.06-16.81-150.03,22.93,15.27,39.37,39.79,43.08,67.79Zm-59.06-428.17c7.07-23.39,15.84-46.23,31.72-65.12,6.91-7.42,14.71-14.06,24.4-17.5,1.33-.47,2.84-.98,4.36-1.36,.59,.3,2.99,.65,3.85,.87,3.68,.93,7.3,2.32,10.4,4.56,16.78,12.17,5.44,36.39-2.53,50.24-12.5,21.72-30,40.89-48.62,57.5-10.08,9-21.18,16.64-32.08,24.6-.94,.69-1.87,1.38-2.81,2.06,1.16-18.96,5.86-37.85,11.31-55.86Zm71.31,36.61c21.06-14.72,42.6-29.96,60.27-48.75,15.05-16,28.75-36.02,28.41-58.88-.3-20.24-13.59-35.75-31.79-43.27-48.29-19.94-104.06,4.54-135.67,42.69-18.38,22.17-30.47,49.77-37.2,77.6-3.34,13.81-5.43,27.89-6.62,42.03-.65,7.71-1.16,15.39-1.98,23.09-.43,3.97-.55,8.05-1.15,11.99-.91,5.94-3.14,6.99-7.93,10.6-22.39,16.88-47.69,30.01-70.65,46.22-22.6,15.95-44.44,32.96-64.82,51.69-40.63,37.35-74.88,81.43-97.96,131.72-22.13,48.22-33.61,103.7-15.31,155.08,14.92,41.88,46.92,75.21,86.2,95.31,45.85,23.47,105.23,31.84,155.54,20.31,17.44-3.99,34.74-9.5,51.63-15.35,2.11-.73,5.34-1.71,9.01-2.94,11.8,81.19,20.19,166.16-4.82,245.62-11.74,37.32-32.48,73.26-65.69,95.3-44.45,29.52-104.22,39.35-155.17,22.92-51.34-16.56-87-56.95-99.85-106.96,31.43,12.66,67.93,10.97,98.43-6.39,38.73-22.04,54.66-70.27,39.29-111.71-14.73-39.73-58.26-62.37-99.6-59.43-47.77,3.4-90.97,40.58-104.61,85.91-14.44,48.02,.06,104.05,26.81,145.11,13.5,20.72,31.19,34.53,49.04,50.97,17.42,16.05,36.32,26.95,59.1,33.81,93.37,28.12,203.41-1.1,262.83-79.67,32.89-43.48,52.56-97.51,55.82-151.84,1.97-33.04-.73-66.13-3.68-99.02-1.48-16.42-3.02-32.84-5.18-49.19-1.86-14.07-5.78-28.22-7.52-42.28,47.99-33.18,83.36-83.69,81.01-144.18-1.14-29.23-12.1-57.37-34.11-77.19-20.47-18.43-48.46-29.56-75.55-34.57-3.84-32.3-7.47-64.63-11.26-96.94-3.97-33.83-9.42-68.2-8.54-102.38,2.91-1.69,5.81-3.39,8.73-5.05,26.63-15.19,49.56-34.53,74.56-52Zm-127.53,84.55c-1.2,57.52,4.24,114.84,11.2,171.94-7.76,1.72-15.47,3.72-23.11,5.87-24.59,6.92-45.96,20.83-62.76,40.12-18.58,21.34-32.35,51.29-30.47,80.12,2.17,33.27,27.73,54.02,59.81,55.83,5.12,.29,26.39-5.2,19.21-13.89-3.57-4.32-11.53-6.31-16.21-9.63-5.36-3.81-10.11-8.77-13.17-14.64-7.01-13.42-7.85-30.92-3.2-45.12,10.96-33.51,43.44-47.28,75.95-47.4,7.55,65.59,14.43,131.38,25.18,196.54,0,.02,0,.04,0,.06,.62,4.14-20.62,9.37-25.95,10.75-13.71,3.55-27.88,6.71-42,8.09-44.16,4.32-92.68-15.67-124.31-45.8-38.46-36.63-53.55-87.46-46.51-139.61,7.23-53.48,34.46-101.77,69.78-141.8,20.02-22.69,42.68-43.1,65.64-62.75,19.61-16.78,39.71-33.69,60.94-48.67Z"/>
              <path class="cls-31" d="M654.73,1075.65c2.68,20.27-1.38,40.66-11,58.75-4.15,7.8-9.33,15.95-15.27,23.49-4.77-50.11-10.76-100.06-16.81-150.03,22.93,15.27,39.37,39.79,43.08,67.8Zm-59.06-428.17c7.07-23.39,15.84-46.23,31.72-65.12,6.91-7.42,14.71-14.06,24.4-17.5,1.33-.47,2.84-.98,4.36-1.36,.59,.3,2.99,.65,3.85,.87,3.68,.93,7.3,2.32,10.4,4.56,16.78,12.17,5.44,36.39-2.53,50.24-12.5,21.72-30,40.89-48.62,57.5-10.08,9-21.18,16.64-32.08,24.6-.94,.69-1.87,1.38-2.81,2.06,1.16-18.96,5.86-37.85,11.31-55.86Zm71.31,36.61c21.06-14.72,42.6-29.96,60.27-48.75,15.05-16,28.75-36.02,28.41-58.88-.3-20.24-13.59-35.75-31.79-43.27-48.29-19.94-104.06,4.54-135.67,42.69-18.38,22.17-30.47,49.77-37.2,77.6-3.34,13.81-5.43,27.89-6.62,42.03-.65,7.71-1.16,15.39-1.98,23.09-.43,3.97-.55,8.05-1.15,11.99-.91,5.94-3.14,6.99-7.93,10.6-22.39,16.88-47.69,30.01-70.65,46.22-22.6,15.95-44.44,32.96-64.82,51.69-40.63,37.35-74.88,81.43-97.96,131.72-22.13,48.22-33.61,103.7-15.31,155.08,14.92,41.88,46.92,75.21,86.2,95.31,45.85,23.47,105.23,31.84,155.54,20.31,17.44-3.99,34.74-9.5,51.63-15.36,2.11-.73,5.34-1.71,9.01-2.94,11.8,81.19,20.19,166.16-4.82,245.62-11.74,37.32-32.48,73.26-65.69,95.3-44.45,29.52-104.22,39.35-155.17,22.92-51.34-16.56-87-56.95-99.85-106.96,31.43,12.66,67.93,10.97,98.43-6.39,38.73-22.04,54.66-70.27,39.29-111.71-14.73-39.73-58.26-62.37-99.6-59.43-47.77,3.4-90.97,40.58-104.61,85.91-14.44,48.02,.06,104.05,26.81,145.11,13.5,20.72,31.19,34.53,49.04,50.97,17.42,16.05,36.32,26.95,59.1,33.81,93.37,28.12,203.41-1.1,262.83-79.67,32.89-43.48,52.56-97.51,55.82-151.84,1.97-33.04-.73-66.13-3.68-99.02-1.48-16.42-3.02-32.84-5.18-49.19-1.86-14.07-5.78-28.22-7.52-42.28,47.99-33.18,83.36-83.69,81.01-144.18-1.14-29.23-12.1-57.37-34.11-77.19-20.47-18.43-48.46-29.56-75.55-34.57-3.84-32.3-7.47-64.63-11.26-96.94-3.97-33.83-9.42-68.2-8.54-102.38,2.91-1.69,5.81-3.39,8.73-5.05,26.63-15.19,49.56-34.53,74.56-52Zm-127.53,84.55c-1.2,57.52,4.24,114.84,11.2,171.94-7.76,1.72-15.47,3.72-23.11,5.87-24.59,6.92-45.96,20.83-62.76,40.12-18.58,21.34-32.35,51.29-30.47,80.12,2.17,33.27,27.73,54.02,59.81,55.83,5.12,.29,26.39-5.2,19.21-13.89-3.57-4.32-11.53-6.31-16.21-9.63-5.36-3.81-10.11-8.77-13.17-14.64-7.01-13.42-7.85-30.92-3.2-45.12,10.96-33.51,43.44-47.28,75.95-47.4,7.55,65.59,14.43,131.38,25.18,196.54,0,.02,0,.04,0,.06,.62,4.14-20.62,9.37-25.95,10.75-13.71,3.55-27.88,6.71-42,8.09-44.16,4.32-92.68-15.67-124.31-45.8-38.46-36.63-53.55-87.46-46.51-139.61,7.23-53.48,34.46-101.77,69.78-141.8,20.02-22.69,42.68-43.1,65.64-62.75,19.61-16.78,39.71-33.69,60.94-48.67Z"/>
              <path class="cls-32" d="M659.63,1072.51c2.68,20.27-1.38,40.66-11,58.75-4.15,7.8-9.33,15.95-15.27,23.49-4.77-50.11-10.76-100.06-16.81-150.03,22.93,15.27,39.37,39.79,43.08,67.8Zm-59.06-428.17c7.07-23.39,15.84-46.23,31.72-65.12,6.91-7.42,14.71-14.06,24.4-17.5,1.33-.47,2.84-.98,4.36-1.36,.59,.3,2.99,.65,3.85,.87,3.68,.93,7.3,2.32,10.4,4.56,16.78,12.17,5.44,36.39-2.53,50.24-12.5,21.72-30,40.89-48.62,57.5-10.08,9-21.18,16.64-32.08,24.6-.94,.69-1.87,1.38-2.81,2.06,1.16-18.96,5.86-37.85,11.31-55.86Zm71.31,36.61c21.06-14.72,42.6-29.96,60.27-48.75,15.05-16,28.75-36.02,28.41-58.88-.3-20.24-13.59-35.75-31.79-43.27-48.29-19.94-104.06,4.54-135.67,42.69-18.38,22.17-30.47,49.77-37.2,77.6-3.34,13.81-5.43,27.89-6.62,42.03-.65,7.71-1.16,15.39-1.98,23.09-.43,3.97-.55,8.05-1.15,11.99-.91,5.94-3.14,6.99-7.93,10.6-22.39,16.88-47.69,30.01-70.65,46.22-22.6,15.95-44.44,32.96-64.82,51.69-40.63,37.35-74.88,81.43-97.96,131.72-22.13,48.22-33.61,103.7-15.31,155.08,14.92,41.88,46.92,75.21,86.2,95.31,45.85,23.47,105.23,31.84,155.54,20.31,17.44-3.99,34.74-9.5,51.63-15.35,2.11-.73,5.34-1.71,9.01-2.94,11.8,81.19,20.19,166.16-4.82,245.62-11.74,37.32-32.48,73.26-65.69,95.3-44.45,29.52-104.22,39.35-155.17,22.92-51.34-16.56-87-56.95-99.85-106.96,31.43,12.66,67.93,10.97,98.43-6.39,38.73-22.04,54.66-70.27,39.29-111.71-14.73-39.73-58.26-62.37-99.6-59.43-47.77,3.4-90.97,40.58-104.61,85.91-14.44,48.02,.06,104.05,26.81,145.11,13.5,20.72,31.19,34.53,49.04,50.97,17.42,16.05,36.32,26.95,59.1,33.81,93.37,28.12,203.41-1.1,262.83-79.67,32.89-43.48,52.56-97.51,55.82-151.84,1.97-33.04-.73-66.13-3.68-99.02-1.48-16.42-3.02-32.84-5.18-49.19-1.86-14.07-5.78-28.22-7.52-42.28,47.99-33.18,83.36-83.69,81.01-144.18-1.14-29.23-12.1-57.37-34.11-77.19-20.47-18.43-48.46-29.56-75.55-34.57-3.84-32.3-7.47-64.63-11.26-96.94-3.97-33.83-9.42-68.2-8.54-102.38,2.91-1.69,5.81-3.39,8.73-5.05,26.63-15.19,49.56-34.53,74.56-52Zm-127.53,84.55c-1.2,57.52,4.24,114.84,11.2,171.94-7.76,1.72-15.47,3.72-23.11,5.87-24.59,6.92-45.96,20.83-62.76,40.12-18.58,21.34-32.35,51.29-30.47,80.12,2.17,33.27,27.73,54.02,59.81,55.83,5.12,.29,26.39-5.2,19.21-13.89-3.57-4.32-11.53-6.31-16.21-9.63-5.36-3.8-10.11-8.77-13.17-14.64-7.01-13.42-7.85-30.92-3.2-45.12,10.96-33.51,43.44-47.28,75.95-47.4,7.55,65.59,14.43,131.38,25.18,196.54,0,.02,0,.04,0,.06,.62,4.14-20.62,9.37-25.95,10.75-13.71,3.55-27.88,6.71-42,8.09-44.16,4.32-92.68-15.67-124.31-45.8-38.46-36.63-53.55-87.46-46.51-139.61,7.23-53.48,34.46-101.77,69.78-141.8,20.02-22.69,42.68-43.1,65.64-62.75,19.61-16.78,39.71-33.69,60.94-48.67Z"/>
              <path class="cls-6" d="M664.52,1069.37c2.68,20.27-1.38,40.66-11,58.75-4.15,7.8-9.33,15.95-15.27,23.49-4.77-50.11-10.76-100.06-16.81-150.03,22.93,15.27,39.37,39.79,43.08,67.79Zm-59.06-428.17c7.07-23.39,15.84-46.23,31.72-65.12,6.91-7.42,14.71-14.06,24.4-17.5,1.33-.47,2.84-.98,4.36-1.36,.59,.3,2.99,.65,3.85,.87,3.68,.93,7.3,2.32,10.4,4.56,16.78,12.17,5.44,36.39-2.53,50.24-12.5,21.72-30,40.89-48.62,57.5-10.08,9-21.18,16.64-32.08,24.6-.94,.69-1.87,1.38-2.81,2.06,1.16-18.96,5.86-37.85,11.31-55.86Zm71.31,36.61c21.06-14.72,42.6-29.96,60.27-48.75,15.05-16,28.75-36.02,28.41-58.88-.3-20.24-13.59-35.75-31.79-43.27-48.29-19.94-104.06,4.54-135.67,42.69-18.38,22.17-30.47,49.77-37.2,77.6-3.34,13.81-5.43,27.89-6.62,42.03-.65,7.71-1.16,15.39-1.98,23.09-.43,3.97-.55,8.05-1.15,11.99-.91,5.94-3.14,6.99-7.93,10.6-22.39,16.88-47.69,30.01-70.65,46.22-22.6,15.95-44.44,32.96-64.82,51.69-40.63,37.35-74.88,81.43-97.96,131.72-22.13,48.22-33.61,103.7-15.31,155.08,14.92,41.88,46.92,75.21,86.2,95.31,45.85,23.47,105.23,31.84,155.54,20.31,17.44-3.99,34.74-9.5,51.63-15.35,2.11-.73,5.34-1.71,9.01-2.94,11.8,81.19,20.19,166.16-4.82,245.62-11.74,37.32-32.48,73.26-65.69,95.3-44.45,29.52-104.22,39.35-155.17,22.92-51.34-16.56-87-56.95-99.85-106.96,31.43,12.66,67.93,10.97,98.43-6.39,38.73-22.04,54.66-70.27,39.29-111.71-14.73-39.73-58.26-62.37-99.6-59.43-47.77,3.4-90.97,40.58-104.61,85.91-14.44,48.02,.06,104.05,26.81,145.11,13.5,20.72,31.19,34.53,49.04,50.97,17.42,16.05,36.32,26.95,59.1,33.81,93.37,28.12,203.41-1.1,262.83-79.67,32.89-43.48,52.56-97.51,55.82-151.84,1.97-33.04-.73-66.13-3.68-99.02-1.48-16.42-3.02-32.84-5.18-49.19-1.86-14.07-5.78-28.22-7.52-42.28,47.99-33.18,83.36-83.69,81.01-144.18-1.14-29.23-12.1-57.37-34.11-77.19-20.47-18.43-48.46-29.56-75.55-34.57-3.84-32.3-7.47-64.63-11.26-96.94-3.97-33.83-9.42-68.2-8.54-102.38,2.91-1.69,5.81-3.39,8.73-5.05,26.63-15.19,49.56-34.53,74.56-52Zm-127.53,84.55c-1.2,57.52,4.24,114.84,11.2,171.94-7.76,1.72-15.47,3.72-23.11,5.87-24.59,6.92-45.96,20.83-62.76,40.12-18.58,21.34-32.35,51.29-30.47,80.12,2.17,33.27,27.73,54.02,59.81,55.83,5.12,.29,26.39-5.2,19.21-13.89-3.57-4.32-11.53-6.31-16.21-9.63-5.36-3.81-10.11-8.77-13.17-14.64-7.01-13.42-7.85-30.92-3.2-45.12,10.96-33.51,43.44-47.28,75.95-47.4,7.55,65.59,14.43,131.38,25.18,196.54,0,.02,0,.04,0,.06,.62,4.14-20.62,9.37-25.95,10.75-13.71,3.55-27.88,6.71-42,8.09-44.16,4.32-92.68-15.67-124.31-45.8-38.46-36.63-53.55-87.46-46.51-139.61,7.23-53.48,34.46-101.77,69.78-141.8,20.02-22.69,42.68-43.1,65.64-62.75,19.61-16.78,39.71-33.69,60.94-48.67Z"/>
              <path class="cls-4" d="M669.41,1066.23c2.68,20.27-1.38,40.66-11,58.75-4.15,7.8-9.33,15.95-15.27,23.49-4.77-50.11-10.76-100.06-16.81-150.03,22.93,15.27,39.37,39.79,43.08,67.8Zm-59.06-428.17c7.07-23.39,15.84-46.23,31.72-65.12,6.91-7.42,14.71-14.06,24.4-17.5,1.33-.47,2.84-.98,4.36-1.36,.59,.3,2.99,.65,3.85,.87,3.68,.93,7.3,2.32,10.4,4.56,16.78,12.17,5.44,36.39-2.53,50.24-12.5,21.72-30,40.89-48.62,57.5-10.08,9-21.18,16.64-32.08,24.6-.94,.69-1.87,1.38-2.81,2.06,1.16-18.96,5.86-37.85,11.31-55.86Zm71.31,36.61c21.06-14.72,42.6-29.96,60.27-48.75,15.05-16,28.75-36.02,28.41-58.88-.3-20.24-13.59-35.75-31.79-43.27-48.29-19.94-104.06,4.54-135.67,42.69-18.38,22.17-30.47,49.77-37.2,77.6-3.34,13.81-5.43,27.89-6.62,42.03-.65,7.71-1.16,15.39-1.98,23.09-.43,3.97-.55,8.05-1.15,11.99-.91,5.94-3.14,6.99-7.93,10.6-22.39,16.88-47.69,30.01-70.65,46.22-22.6,15.95-44.44,32.96-64.82,51.69-40.63,37.35-74.88,81.43-97.96,131.72-22.13,48.22-33.61,103.7-15.31,155.08,14.92,41.88,46.92,75.21,86.2,95.31,45.85,23.47,105.23,31.84,155.54,20.31,17.44-3.99,34.74-9.5,51.63-15.36,2.11-.73,5.34-1.71,9.01-2.94,11.8,81.19,20.19,166.16-4.82,245.62-11.74,37.32-32.48,73.26-65.69,95.3-44.45,29.52-104.22,39.35-155.17,22.92-51.34-16.56-87-56.95-99.85-106.96,31.43,12.66,67.93,10.97,98.43-6.39,38.73-22.04,54.66-70.27,39.29-111.71-14.73-39.73-58.26-62.37-99.6-59.43-47.77,3.4-90.97,40.58-104.61,85.91-14.44,48.02,.06,104.05,26.81,145.11,13.5,20.72,31.19,34.53,49.04,50.97,17.42,16.05,36.32,26.95,59.1,33.81,93.37,28.12,203.41-1.1,262.83-79.67,32.89-43.48,52.56-97.51,55.82-151.84,1.97-33.04-.73-66.13-3.68-99.02-1.48-16.42-3.02-32.84-5.18-49.19-1.86-14.07-5.78-28.22-7.52-42.28,47.99-33.18,83.36-83.69,81.01-144.18-1.14-29.23-12.1-57.37-34.11-77.19-20.47-18.43-48.46-29.56-75.55-34.57-3.84-32.3-7.47-64.63-11.26-96.94-3.97-33.83-9.42-68.2-8.54-102.38,2.91-1.69,5.81-3.39,8.73-5.05,26.63-15.19,49.56-34.53,74.56-52Zm-127.53,84.55c-1.2,57.52,4.24,114.84,11.2,171.94-7.76,1.72-15.47,3.72-23.11,5.87-24.59,6.92-45.96,20.83-62.76,40.12-18.58,21.34-32.35,51.29-30.47,80.12,2.17,33.27,27.73,54.02,59.81,55.83,5.12,.29,26.39-5.2,19.21-13.89-3.57-4.32-11.53-6.31-16.21-9.63-5.36-3.8-10.11-8.77-13.17-14.64-7.01-13.42-7.85-30.92-3.2-45.12,10.96-33.51,43.44-47.28,75.95-47.4,7.55,65.59,14.43,131.38,25.18,196.54,0,.02,0,.04,0,.06,.62,4.14-20.62,9.37-25.95,10.75-13.71,3.55-27.88,6.71-42,8.09-44.16,4.32-92.68-15.67-124.31-45.8-38.46-36.63-53.55-87.46-46.51-139.61,7.23-53.48,34.46-101.77,69.78-141.8,20.02-22.69,42.68-43.1,65.64-62.75,19.61-16.78,39.71-33.69,60.94-48.67Z"/>
              <path class="cls-13" d="M674.3,1063.09c2.68,20.27-1.38,40.66-11,58.75-4.15,7.8-9.33,15.95-15.27,23.49-4.77-50.11-10.76-100.06-16.81-150.03,22.93,15.27,39.37,39.79,43.08,67.8Zm-59.06-428.17c7.07-23.39,15.84-46.23,31.72-65.12,6.91-7.42,14.71-14.06,24.4-17.5,1.33-.47,2.84-.98,4.36-1.36,.59,.3,2.99,.65,3.85,.87,3.68,.93,7.3,2.32,10.4,4.56,16.78,12.17,5.44,36.39-2.53,50.24-12.5,21.72-30,40.89-48.62,57.5-10.08,9-21.18,16.64-32.08,24.6-.94,.69-1.87,1.38-2.81,2.06,1.16-18.96,5.86-37.85,11.31-55.86Zm71.31,36.61c21.06-14.72,42.6-29.96,60.27-48.75,15.05-16,28.75-36.02,28.41-58.88-.3-20.24-13.59-35.75-31.79-43.27-48.29-19.94-104.06,4.54-135.67,42.69-18.38,22.17-30.47,49.77-37.2,77.6-3.34,13.81-5.43,27.89-6.62,42.03-.65,7.71-1.16,15.39-1.98,23.09-.43,3.97-.55,8.05-1.15,11.99-.91,5.94-3.14,6.99-7.93,10.6-22.39,16.88-47.69,30.01-70.65,46.22-22.6,15.95-44.44,32.96-64.82,51.69-40.63,37.35-74.88,81.43-97.96,131.72-22.13,48.22-33.61,103.7-15.31,155.08,14.92,41.88,46.92,75.21,86.2,95.31,45.85,23.47,105.23,31.84,155.54,20.31,17.44-3.99,34.74-9.5,51.63-15.35,2.11-.73,5.34-1.71,9.01-2.94,11.8,81.19,20.19,166.16-4.82,245.62-11.74,37.32-32.48,73.26-65.69,95.3-44.45,29.52-104.22,39.35-155.17,22.92-51.34-16.56-87-56.95-99.85-106.96,31.43,12.66,67.93,10.97,98.43-6.39,38.73-22.04,54.66-70.27,39.29-111.71-14.73-39.73-58.26-62.37-99.6-59.43-47.77,3.4-90.97,40.58-104.61,85.91-14.44,48.02,.06,104.05,26.81,145.11,13.5,20.72,31.19,34.53,49.04,50.97,17.42,16.05,36.32,26.95,59.1,33.81,93.37,28.12,203.41-1.1,262.83-79.67,32.89-43.48,52.56-97.51,55.82-151.84,1.97-33.04-.73-66.13-3.68-99.02-1.48-16.42-3.02-32.84-5.18-49.19-1.86-14.07-5.78-28.22-7.52-42.28,47.99-33.18,83.36-83.69,81.01-144.18-1.14-29.23-12.1-57.37-34.11-77.19-20.47-18.43-48.46-29.56-75.55-34.57-3.84-32.3-7.47-64.63-11.26-96.94-3.97-33.83-9.42-68.2-8.54-102.38,2.91-1.69,5.81-3.39,8.73-5.05,26.63-15.19,49.56-34.53,74.56-52Zm-127.53,84.55c-1.2,57.52,4.24,114.84,11.2,171.94-7.76,1.72-15.47,3.72-23.11,5.87-24.59,6.92-45.96,20.83-62.76,40.12-18.58,21.34-32.35,51.29-30.47,80.12,2.17,33.27,27.73,54.02,59.81,55.83,5.12,.29,26.39-5.2,19.21-13.89-3.57-4.32-11.53-6.31-16.21-9.63-5.36-3.8-10.11-8.77-13.17-14.64-7.01-13.42-7.85-30.92-3.2-45.12,10.96-33.51,43.44-47.28,75.95-47.4,7.55,65.59,14.43,131.38,25.18,196.54,0,.02,0,.04,0,.06,.62,4.14-20.62,9.37-25.95,10.75-13.71,3.55-27.88,6.71-42,8.09-44.16,4.32-92.68-15.67-124.31-45.8-38.46-36.63-53.55-87.46-46.51-139.61,7.23-53.48,34.46-101.77,69.78-141.8,20.02-22.69,42.68-43.1,65.64-62.75,19.61-16.78,39.71-33.69,60.94-48.67Z"/>
              <path class="cls-3" d="M679.2,1059.95c2.68,20.27-1.38,40.66-11,58.75-4.15,7.8-9.33,15.95-15.27,23.49-4.77-50.11-10.76-100.06-16.81-150.03,22.93,15.27,39.37,39.79,43.08,67.79Zm-59.06-428.17c7.07-23.39,15.84-46.23,31.72-65.12,6.91-7.42,14.71-14.06,24.4-17.5,1.33-.47,2.84-.98,4.36-1.36,.59,.3,2.99,.65,3.85,.87,3.68,.93,7.3,2.32,10.4,4.56,16.78,12.17,5.44,36.39-2.53,50.24-12.5,21.72-30,40.89-48.62,57.5-10.08,9-21.18,16.64-32.08,24.6-.94,.69-1.87,1.38-2.81,2.06,1.16-18.96,5.86-37.85,11.31-55.86Zm71.31,36.61c21.06-14.72,42.6-29.96,60.27-48.75,15.05-16,28.75-36.02,28.41-58.88-.3-20.24-13.59-35.75-31.79-43.27-48.29-19.94-104.06,4.54-135.67,42.69-18.38,22.17-30.47,49.77-37.2,77.6-3.34,13.81-5.43,27.89-6.62,42.03-.65,7.71-1.16,15.39-1.98,23.09-.43,3.97-.55,8.05-1.15,11.99-.91,5.94-3.14,6.99-7.93,10.6-22.39,16.88-47.69,30.01-70.65,46.22-22.6,15.95-44.44,32.96-64.82,51.69-40.63,37.35-74.88,81.43-97.96,131.72-22.13,48.22-33.61,103.7-15.31,155.08,14.92,41.88,46.92,75.21,86.2,95.31,45.85,23.47,105.23,31.84,155.54,20.31,17.44-3.99,34.74-9.5,51.63-15.35,2.11-.73,5.34-1.71,9.01-2.94,11.8,81.19,20.19,166.16-4.82,245.62-11.74,37.32-32.48,73.26-65.69,95.3-44.45,29.52-104.22,39.35-155.17,22.92-51.34-16.56-87-56.95-99.85-106.96,31.43,12.66,67.93,10.97,98.43-6.39,38.73-22.04,54.66-70.27,39.29-111.71-14.73-39.73-58.26-62.37-99.6-59.43-47.77,3.4-90.97,40.58-104.61,85.91-14.44,48.02,.06,104.05,26.81,145.11,13.5,20.72,31.19,34.53,49.04,50.97,17.42,16.05,36.32,26.95,59.1,33.81,93.37,28.12,203.41-1.1,262.83-79.67,32.89-43.48,52.56-97.51,55.82-151.84,1.97-33.04-.73-66.13-3.68-99.02-1.48-16.42-3.02-32.84-5.18-49.19-1.86-14.07-5.78-28.22-7.52-42.28,47.99-33.18,83.36-83.69,81.01-144.18-1.14-29.23-12.1-57.37-34.11-77.19-20.47-18.43-48.46-29.56-75.55-34.57-3.84-32.3-7.47-64.63-11.26-96.94-3.97-33.83-9.42-68.2-8.54-102.38,2.91-1.69,5.81-3.39,8.73-5.05,26.63-15.19,49.56-34.53,74.56-52Zm-127.53,84.55c-1.2,57.52,4.24,114.84,11.2,171.94-7.76,1.72-15.47,3.72-23.11,5.87-24.59,6.92-45.96,20.83-62.76,40.12-18.58,21.34-32.35,51.29-30.47,80.12,2.17,33.27,27.73,54.02,59.81,55.83,5.12,.29,26.39-5.2,19.21-13.89-3.57-4.32-11.53-6.31-16.21-9.63-5.36-3.81-10.11-8.77-13.17-14.64-7.01-13.42-7.85-30.92-3.2-45.12,10.96-33.51,43.44-47.28,75.95-47.4,7.55,65.59,14.43,131.38,25.18,196.54,0,.02,0,.04,0,.06,.62,4.14-20.62,9.37-25.95,10.75-13.71,3.55-27.88,6.71-42,8.09-44.16,4.32-92.68-15.67-124.31-45.8-38.46-36.63-53.55-87.46-46.51-139.61,7.23-53.48,34.46-101.77,69.78-141.8,20.02-22.69,42.68-43.1,65.64-62.75,19.61-16.78,39.71-33.69,60.94-48.67Z"/>
              <path class="cls-5" d="M684.09,1056.81c2.68,20.27-1.38,40.66-11,58.75-4.15,7.8-9.33,15.95-15.27,23.49-4.77-50.11-10.76-100.06-16.81-150.03,22.93,15.27,39.37,39.79,43.08,67.8Zm-59.06-428.17c7.07-23.39,15.84-46.23,31.72-65.12,6.91-7.42,14.71-14.06,24.4-17.5,1.33-.47,2.84-.98,4.36-1.36,.59,.3,2.99,.65,3.85,.87,3.68,.93,7.3,2.32,10.4,4.56,16.78,12.17,5.44,36.39-2.53,50.24-12.5,21.72-30,40.89-48.62,57.5-10.08,9-21.18,16.64-32.08,24.6-.94,.69-1.87,1.38-2.81,2.06,1.16-18.96,5.86-37.85,11.31-55.86Zm71.31,36.61c21.06-14.72,42.6-29.96,60.27-48.75,15.05-16,28.75-36.02,28.41-58.88-.3-20.24-13.59-35.75-31.79-43.27-48.29-19.94-104.06,4.54-135.67,42.69-18.38,22.17-30.47,49.77-37.2,77.6-3.34,13.81-5.43,27.89-6.62,42.03-.65,7.71-1.16,15.39-1.98,23.09-.43,3.97-.55,8.05-1.15,11.99-.91,5.94-3.14,6.99-7.93,10.6-22.39,16.88-47.69,30.01-70.65,46.22-22.6,15.95-44.44,32.96-64.82,51.69-40.63,37.35-74.88,81.43-97.96,131.72-22.13,48.22-33.61,103.7-15.31,155.08,14.92,41.88,46.92,75.21,86.2,95.31,45.85,23.47,105.23,31.84,155.54,20.31,17.44-3.99,34.74-9.5,51.63-15.36,2.11-.73,5.34-1.71,9.01-2.94,11.8,81.19,20.19,166.16-4.82,245.62-11.74,37.32-32.48,73.26-65.69,95.3-44.45,29.52-104.22,39.35-155.17,22.92-51.34-16.56-87-56.95-99.85-106.96,31.43,12.66,67.93,10.97,98.43-6.39,38.73-22.04,54.66-70.27,39.29-111.71-14.73-39.73-58.26-62.37-99.6-59.43-47.77,3.4-90.97,40.58-104.61,85.91-14.44,48.02,.06,104.05,26.81,145.11,13.5,20.72,31.19,34.53,49.04,50.97,17.42,16.05,36.32,26.95,59.1,33.81,93.37,28.12,203.41-1.1,262.83-79.67,32.89-43.48,52.56-97.51,55.82-151.84,1.97-33.04-.73-66.13-3.68-99.02-1.48-16.42-3.02-32.84-5.18-49.19-1.86-14.07-5.78-28.22-7.52-42.28,47.99-33.18,83.36-83.69,81.01-144.18-1.14-29.23-12.1-57.37-34.11-77.19-20.47-18.43-48.46-29.56-75.55-34.57-3.84-32.3-7.47-64.63-11.26-96.94-3.97-33.83-9.42-68.2-8.54-102.38,2.91-1.69,5.81-3.39,8.73-5.05,26.63-15.19,49.56-34.53,74.56-52Zm-127.53,84.55c-1.2,57.52,4.24,114.84,11.2,171.94-7.76,1.72-15.47,3.72-23.11,5.87-24.59,6.92-45.96,20.83-62.76,40.12-18.58,21.34-32.35,51.29-30.47,80.12,2.17,33.27,27.73,54.02,59.81,55.83,5.12,.29,26.39-5.2,19.21-13.89-3.57-4.32-11.53-6.31-16.21-9.63-5.36-3.81-10.11-8.77-13.17-14.64-7.01-13.42-7.85-30.92-3.2-45.12,10.96-33.51,43.44-47.28,75.95-47.4,7.55,65.59,14.43,131.38,25.18,196.54,0,.02,0,.04,0,.06,.62,4.14-20.62,9.37-25.95,10.75-13.71,3.55-27.88,6.71-42,8.09-44.16,4.32-92.68-15.67-124.31-45.8-38.46-36.63-53.55-87.46-46.51-139.61,7.23-53.48,34.46-101.77,69.78-141.8,20.02-22.69,42.68-43.1,65.64-62.75,19.61-16.78,39.71-33.69,60.94-48.67Z"/>
              <path class="cls-26" d="M688.98,1053.66c2.68,20.27-1.38,40.66-11,58.75-4.15,7.8-9.33,15.95-15.27,23.49-4.77-50.11-10.76-100.06-16.81-150.03,22.93,15.27,39.37,39.79,43.08,67.8Zm-59.06-428.17c7.07-23.39,15.84-46.23,31.72-65.12,6.91-7.42,14.71-14.06,24.4-17.5,1.33-.47,2.84-.98,4.36-1.36,.59,.3,2.99,.65,3.85,.87,3.68,.93,7.3,2.32,10.4,4.56,16.78,12.17,5.44,36.39-2.53,50.24-12.5,21.72-30,40.89-48.62,57.5-10.08,9-21.18,16.64-32.08,24.6-.94,.69-1.87,1.38-2.81,2.06,1.16-18.96,5.86-37.85,11.31-55.86Zm71.31,36.61c21.06-14.72,42.6-29.96,60.27-48.75,15.05-16,28.75-36.02,28.41-58.88-.3-20.24-13.59-35.75-31.79-43.27-48.29-19.94-104.06,4.54-135.67,42.69-18.38,22.17-30.47,49.77-37.2,77.6-3.34,13.81-5.43,27.89-6.62,42.03-.65,7.71-1.16,15.39-1.98,23.09-.43,3.97-.55,8.05-1.15,11.99-.91,5.94-3.14,6.99-7.93,10.6-22.39,16.88-47.69,30.01-70.65,46.22-22.6,15.95-44.45,32.96-64.82,51.69-40.63,37.35-74.88,81.43-97.96,131.72-22.13,48.22-33.61,103.7-15.31,155.08,14.93,41.88,46.92,75.21,86.2,95.31,45.85,23.47,105.23,31.84,155.54,20.31,17.44-3.99,34.74-9.5,51.63-15.35,2.11-.73,5.34-1.71,9.01-2.94,11.8,81.19,20.19,166.16-4.82,245.62-11.74,37.32-32.48,73.26-65.69,95.3-44.45,29.52-104.23,39.35-155.17,22.92-51.34-16.56-87-56.95-99.85-106.96,31.43,12.66,67.93,10.97,98.43-6.39,38.73-22.04,54.66-70.27,39.29-111.71-14.73-39.73-58.26-62.37-99.6-59.43-47.77,3.4-90.97,40.58-104.61,85.91-14.44,48.02,.06,104.05,26.81,145.11,13.5,20.72,31.19,34.53,49.04,50.97,17.42,16.05,36.32,26.95,59.1,33.81,93.37,28.12,203.41-1.1,262.83-79.67,32.89-43.48,52.56-97.51,55.82-151.84,1.97-33.04-.73-66.13-3.68-99.02-1.48-16.42-3.02-32.84-5.18-49.19-1.86-14.07-5.78-28.22-7.52-42.28,47.99-33.18,83.36-83.69,81.01-144.18-1.14-29.23-12.1-57.37-34.11-77.19-20.47-18.43-48.46-29.56-75.55-34.57-3.84-32.3-7.47-64.63-11.26-96.94-3.97-33.83-9.42-68.2-8.54-102.38,2.91-1.69,5.81-3.39,8.73-5.05,26.63-15.19,49.56-34.53,74.56-52Zm-127.53,84.55c-1.2,57.52,4.24,114.84,11.2,171.94-7.76,1.72-15.47,3.72-23.11,5.87-24.59,6.92-45.96,20.83-62.76,40.12-18.58,21.34-32.35,51.29-30.47,80.12,2.17,33.27,27.73,54.02,59.81,55.83,5.12,.29,26.39-5.2,19.21-13.89-3.57-4.32-11.53-6.31-16.21-9.63-5.36-3.8-10.11-8.77-13.17-14.64-7.01-13.42-7.85-30.92-3.2-45.12,10.96-33.51,43.44-47.28,75.95-47.4,7.55,65.59,14.43,131.38,25.18,196.54,0,.02,0,.04,0,.06,.62,4.14-20.62,9.37-25.95,10.75-13.71,3.55-27.88,6.71-42,8.09-44.16,4.32-92.68-15.67-124.31-45.8-38.46-36.63-53.55-87.46-46.51-139.61,7.23-53.48,34.46-101.77,69.78-141.8,20.02-22.69,42.68-43.1,65.64-62.75,19.61-16.78,39.71-33.69,60.94-48.67Z"/>
              <path class="cls-7" d="M693.88,1050.52c2.68,20.27-1.38,40.66-11,58.75-4.15,7.8-9.33,15.95-15.27,23.49-4.77-50.11-10.76-100.06-16.81-150.03,22.93,15.27,39.37,39.79,43.08,67.79Zm-59.06-428.17c7.07-23.39,15.84-46.23,31.72-65.12,6.91-7.42,14.71-14.06,24.4-17.5,1.33-.47,2.84-.98,4.36-1.36,.59,.3,2.99,.65,3.85,.87,3.68,.93,7.3,2.32,10.4,4.56,16.78,12.17,5.44,36.39-2.53,50.24-12.5,21.72-30,40.89-48.62,57.5-10.08,9-21.18,16.64-32.08,24.6-.94,.69-1.87,1.38-2.81,2.06,1.16-18.96,5.86-37.85,11.31-55.86Zm71.31,36.61c21.06-14.72,42.6-29.96,60.27-48.75,15.05-16,28.75-36.02,28.41-58.88-.3-20.24-13.59-35.75-31.79-43.27-48.29-19.94-104.06,4.54-135.67,42.69-18.38,22.17-30.47,49.77-37.2,77.6-3.34,13.81-5.43,27.89-6.62,42.03-.65,7.71-1.16,15.39-1.98,23.09-.43,3.97-.55,8.05-1.15,11.99-.91,5.94-3.14,6.99-7.93,10.6-22.39,16.88-47.69,30.01-70.65,46.22-22.6,15.95-44.45,32.96-64.82,51.69-40.63,37.35-74.88,81.43-97.96,131.72-22.13,48.22-33.61,103.7-15.31,155.08,14.92,41.88,46.92,75.21,86.2,95.31,45.85,23.47,105.23,31.84,155.54,20.31,17.44-3.99,34.74-9.5,51.63-15.35,2.11-.73,5.34-1.71,9.01-2.94,11.8,81.19,20.19,166.16-4.82,245.62-11.74,37.32-32.48,73.26-65.69,95.3-44.45,29.52-104.23,39.35-155.17,22.92-51.34-16.56-87-56.95-99.85-106.96,31.43,12.66,67.93,10.97,98.43-6.39,38.73-22.04,54.66-70.27,39.29-111.71-14.73-39.73-58.26-62.37-99.6-59.43-47.77,3.4-90.97,40.58-104.61,85.91-14.44,48.02,.06,104.05,26.81,145.11,13.5,20.72,31.19,34.53,49.04,50.97,17.42,16.05,36.32,26.95,59.1,33.81,93.37,28.12,203.41-1.1,262.83-79.67,32.89-43.48,52.57-97.51,55.82-151.84,1.97-33.04-.73-66.13-3.68-99.02-1.48-16.42-3.02-32.84-5.18-49.19-1.86-14.07-5.78-28.22-7.52-42.28,47.99-33.18,83.36-83.69,81.01-144.18-1.14-29.23-12.1-57.37-34.11-77.19-20.47-18.43-48.46-29.56-75.55-34.57-3.84-32.3-7.47-64.63-11.26-96.94-3.97-33.83-9.42-68.2-8.54-102.38,2.91-1.69,5.81-3.39,8.73-5.05,26.63-15.19,49.56-34.53,74.56-52Zm-127.53,84.55c-1.2,57.52,4.24,114.84,11.2,171.94-7.76,1.72-15.47,3.72-23.11,5.87-24.59,6.92-45.96,20.83-62.76,40.12-18.58,21.34-32.35,51.29-30.47,80.12,2.17,33.27,27.73,54.02,59.81,55.83,5.12,.29,26.39-5.2,19.21-13.89-3.57-4.32-11.53-6.31-16.21-9.63-5.36-3.8-10.11-8.77-13.17-14.64-7.01-13.42-7.85-30.92-3.2-45.12,10.96-33.51,43.44-47.28,75.95-47.4,7.55,65.59,14.43,131.38,25.18,196.54,0,.02,0,.04,0,.06,.62,4.14-20.62,9.37-25.95,10.75-13.71,3.55-27.88,6.71-42,8.09-44.16,4.32-92.68-15.67-124.31-45.8-38.46-36.63-53.55-87.46-46.51-139.61,7.23-53.48,34.46-101.77,69.78-141.8,20.02-22.69,42.68-43.1,65.64-62.75,19.61-16.78,39.71-33.69,60.94-48.67Z"/>
              <path class="cls-14" d="M698.77,1047.38c2.38,20.3-1.38,40.66-11,58.75-4.15,7.8-9.33,15.95-15.27,23.49-4.77-50.11-10.76-100.06-16.81-150.03,22.93,15.27,38.95,39.84,43.08,67.8Zm-59.06-428.17c7.07-23.39,15.84-46.23,31.72-65.12,6.91-7.42,14.71-14.06,24.4-17.5,1.33-.47,2.84-.98,4.36-1.36,.59,.3,2.99,.65,3.85,.87,3.68,.93,7.3,2.32,10.4,4.56,16.78,12.17,5.44,36.39-2.53,50.24-12.5,21.72-30,40.89-48.62,57.5-10.08,9-21.18,16.64-32.08,24.6-.94,.69-1.87,1.38-2.81,2.06,1.16-18.96,5.86-37.85,11.31-55.86Zm71.31,36.61c21.06-14.72,42.6-29.96,60.27-48.75,15.05-16,28.75-36.02,28.41-58.88-.3-20.24-13.59-35.75-31.79-43.27-48.29-19.94-104.06,4.54-135.67,42.69-18.38,22.17-30.47,49.77-37.2,77.6-3.34,13.81-5.43,27.89-6.62,42.03-.65,7.71-1.16,15.39-1.98,23.09-.43,3.97-.55,8.05-1.15,11.99-.91,5.94-3.14,6.99-7.93,10.6-22.39,16.88-47.69,30.01-70.65,46.22-22.6,15.95-44.45,32.96-64.82,51.69-40.63,37.35-74.88,81.43-97.96,131.72-22.13,48.22-33.61,103.7-15.31,155.08,14.93,41.88,46.92,75.21,86.2,95.31,45.85,23.47,105.23,31.84,155.54,20.31,17.44-3.99,34.74-9.5,51.63-15.35,2.11-.73,5.34-1.71,9.01-2.94,11.8,81.19,20.19,166.16-4.82,245.62-11.74,37.32-32.48,73.26-65.69,95.3-44.45,29.52-104.23,39.35-155.17,22.92-51.34-16.56-87-56.95-99.85-106.96,31.43,12.66,67.93,10.97,98.43-6.39,38.73-22.04,54.66-70.27,39.29-111.71-14.73-39.73-58.26-62.37-99.6-59.43-47.77,3.4-90.97,40.58-104.61,85.91-14.44,48.02,.06,104.05,26.81,145.11,13.5,20.72,31.19,34.53,49.04,50.97,17.42,16.05,36.32,26.95,59.1,33.81,93.37,28.12,203.41-1.1,262.83-79.67,32.89-43.48,52.56-97.51,55.82-151.84,1.97-33.04-.73-66.13-3.68-99.02-1.48-16.42-3.02-32.84-5.18-49.19-1.86-14.07-5.78-28.22-7.52-42.28,47.99-33.18,83.36-83.69,81.01-144.18-1.14-29.23-12.1-57.37-34.11-77.19-20.47-18.43-48.46-29.56-75.55-34.57-3.84-32.3-7.47-64.63-11.26-96.94-3.97-33.83-9.42-68.2-8.54-102.38,2.91-1.69,5.81-3.39,8.73-5.05,26.63-15.19,49.56-34.53,74.56-52Zm-127.53,84.55c-1.2,57.52,4.24,114.84,11.2,171.94-7.76,1.72-15.47,3.72-23.11,5.87-24.59,6.92-45.96,20.83-62.76,40.12-18.58,21.34-32.35,51.29-30.47,80.12,2.17,33.27,27.73,54.02,59.81,55.83,5.12,.29,26.39-5.2,19.21-13.89-3.57-4.32-11.53-6.31-16.21-9.63-5.36-3.81-10.11-8.77-13.17-14.64-7.01-13.42-7.85-30.92-3.2-45.12,10.96-33.51,43.44-47.28,75.95-47.4,7.55,65.59,14.43,131.38,25.18,196.54,0,.02,0,.04,0,.06,.62,4.14-20.62,9.37-25.95,10.75-13.71,3.55-27.88,6.71-42,8.09-44.16,4.32-92.68-15.67-124.31-45.8-38.46-36.63-53.55-87.46-46.51-139.61,7.23-53.48,34.46-101.77,69.78-141.8,20.02-22.69,42.68-43.1,65.64-62.75,19.61-16.78,39.71-33.69,60.94-48.67Z"/>
            </g>
            <g>
              <g>
                <path class="cls-27" d="M627.52,702.94c23.51-13.23,45.05-28.65,65.41-45.69,6.12-4.18,12.21-8.38,18.15-12.72,24.33-17.79,56.9-41.43,69.11-70.3,12.89-30.47,.17-56.04-30.35-64.51-31.83-8.83-58.11,.6-83.98,19.55-16.88,12.37-30.16,30.45-40.4,50.68-15.55,30.72-21.81,64.89-23.42,99.49-1.19,9.57-2.13,19.16-2.83,28.77-6.84,5.12-13.68,10.28-20.49,15.45-69.73,40.91-138.96,91.78-185.95,158.47-36,51.11-67.39,120.75-56.7,184.68,13.75,82.2,86.16,133.25,165.33,140.81,20.4,1.95,43.21,2.31,63.46-1.27,8.32-1.48,79.76-21.09,78.59-28.87,2.72,18.09,5.29,36.18,7.58,54.3,13.12,103.35,12.14,259.43-93.63,316.2-48.54,26.07-110.19,36.6-165.04,17.44-33.36-11.66-62.68-33.29-82.17-63.03-14.15-21.58-22.48-49.14-24.12-76.41,29.16,27.34,73.66,34.32,108.89,14.6,32.1-18,45.44-56.77,37.05-92.21-10.17-42.97-43.49-59.95-75.49-64.98-35.09-5.53-70.02,17.69-89.5,46.65-25.83,38.42-21.97,88.99-7.12,130.56,13.46,37.73,36.9,67.12,66.05,87.8,11.66,12.59,26.56,23.01,46.38,30.29,58.63,21.5,136.68,15.61,191.63-15.56,58.42-33.13,97.07-103.19,109.6-166.65,8.27-41.85,4.95-86.84,1.2-128.99-2.84-31.8-5.96-66.14-13.5-98.29-.06-.59-.09-1.18-.16-1.77,52.24-33.16,89.03-87.76,80.46-153.27-6.21-47.56-39.8-76.48-80.55-87.73-8.94-3.59-18.21-5.92-27.58-7.25-1.64-13.73-3.3-27.48-4.87-41.24-1.35-13.27-2.91-26.55-4.55-39.83-2.21-19.34-4.51-38.68-6.9-57.98-2.09-19.81-3.63-39.65-4.15-59.52,.09-3.16,.2-6.3,.33-9.45,4.75-2.75,9.45-5.55,14.24-8.24Zm31.14-150.59c11.46-12.97,26.06-22.6,44.81-25.83,26.08,2.61,42.13,17.79,30.25,48.05-7.72,19.63-19.73,35.31-33.35,51.08-10.76,12.47-22.36,23.36-34.47,33.49-5.01,3.66-10.01,7.32-14.99,10.94-10.82,7.86-21.61,15.79-32.37,23.75-1.25,.98-2.57,1.82-4.06,2.39-.42,.19-.54,.6-.51,.9-2.67-29.55,7.22-66.17,16.86-93.82,6.37-18.31,15.19-36.66,27.82-50.95Zm54.63,491.52c5.88,44.39-18.06,80.93-49.06,108.48-1.37,.95-2.74,1.91-4.14,2.86-5.6-65.16-13.32-130.52-21.72-195.25-.03-.22-.05-.45-.08-.67,38.96,10.85,69.69,44.55,74.99,84.59Zm-103.81-132.8c.29,2.34,.55,4.7,.84,7.04-.3-2.4-42.32,9.02-46.16,10.64-40.92,17.24-70.6,59.49-71.46,104.07,.62,11.23,3.4,22.19,9.14,30.85,9.48,14.31,25.59,21.72,42.03,22.15-.14-.14-.14-.33-.37-.45-22.24-10.24-32.63-21.73-35.73-46.6-2.63-21.06,5.93-40.43,20.18-55.38,21.75-22.83,55.68-30.52,86.77-28.03,7.82,67.47,15.05,135.01,25.83,202.08,.45,2.77-.43-2.78,0,0,2.67,17.06-79.42,30.23-89.55,30.37-61.85,.81-120.05-25.81-154.97-77.77-36.08-53.7-30.06-125.1-3.48-182.27,26.1-56.14,65.55-95.53,111.53-135.72,14.89-13.01,30.11-25.38,45.45-37.56,11.49-8.8,23.07-17.4,34.64-26.05,4.79-2.93,9.59-5.82,14.43-8.7-3.31,63.83,3.12,128.19,10.89,191.32Z"/>
                <g>
                  <path d="M636.46,707.83c26.63-15.19,49.56-34.53,74.56-52,21.06-14.72,42.6-29.96,60.27-48.75,15.05-16,28.75-36.02,28.41-58.88-.3-20.24-13.59-35.75-31.79-43.27-48.29-19.94-104.06,4.54-135.67,42.69-18.37,22.17-30.47,49.77-37.2,77.6-3.34,13.81-5.43,27.89-6.62,42.03-.65,7.72-1.15,15.39-1.98,23.09-.43,3.97-.55,8.05-1.15,11.99-.91,5.94-3.14,6.99-7.93,10.6-22.39,16.88-47.69,30.01-70.65,46.22-22.6,15.95-44.45,32.96-64.82,51.69-40.63,37.35-74.88,81.43-97.96,131.72-22.13,48.22-33.62,103.7-15.31,155.08,14.92,41.88,46.91,75.21,86.2,95.31,45.86,23.47,105.23,31.84,155.54,20.31,17.44-3.99,34.74-9.5,51.63-15.35,8.55-2.96,35.34-9.88,35.96-21.78-9.67,1.62-19.34,3.24-29.01,4.86,12.79,85.37,23.69,175.56-2.76,259.6-11.75,37.32-32.48,73.26-65.69,95.3-44.45,29.52-104.22,39.35-155.17,22.92-61.09-19.71-100.1-73.09-104.74-136.36-9.34,2.99-18.68,5.98-28.02,8.97,35.8,32.26,89.29,37.96,131.34,14.04,38.73-22.04,54.66-70.27,39.29-111.71-14.73-39.73-58.26-62.37-99.6-59.43-47.77,3.4-90.97,40.58-104.61,85.91-14.44,48.02,.07,104.05,26.81,145.11,13.49,20.72,31.19,34.53,49.04,50.97,17.42,16.05,36.32,26.95,59.1,33.81,93.37,28.12,203.41-1.1,262.83-79.67,32.89-43.48,52.57-97.51,55.82-151.84,1.98-33.04-.73-66.13-3.68-99.02-1.48-16.42-3.02-32.84-5.18-49.19-2.05-15.48-6.72-31.06-8.09-46.52-1.86,2.8-3.71,5.61-5.57,8.41,51.1-33.04,89.6-85.31,87.15-148.35-1.14-29.23-12.1-57.38-34.11-77.19-21.78-19.6-52.07-31.04-80.72-35.54,1.86,1.48,3.72,2.95,5.58,4.43-4-33.46-7.73-66.94-11.66-100.4-4.09-34.84-9.8-70.25-8.5-105.43-1.85,2.08-3.7,4.16-5.55,6.23,4.74-2.76,9.47-5.52,14.24-8.24,4.82-2.74,7.86-8.01,2.64-11.83-5.34-3.91-15.54-.79-20.53,2.05-5.92,3.37-17.25,7.46-19.79,14.47-2.47,6.81-.17,18.38,.17,25.38,1.01,20.98,3.18,41.82,5.7,62.66,4.92,40.7,9.39,81.44,14.25,122.15,.27,2.25,3.7,4.13,5.58,4.43,25.08,3.94,52.42,13.32,71.6,30.54,20.18,18.1,30.14,42.81,31.88,69.56,3.67,56.34-29.94,105.65-75.81,135.31-3.08,1.99-5.92,4.44-5.57,8.41,.97,10.97,4.44,22.04,6.15,32.96,1.87,11.99,3.32,24.05,4.59,36.12,2.52,24.04,4.75,48.17,6.04,72.31,2.42,45.22-1.42,89.44-17.83,131.92-14.17,36.71-36.3,71.72-66.55,97.25-31.61,26.67-72.56,38.85-113.36,41.18-39.62,2.26-86.44-4.51-117.45-31.29-14.76-12.75-30.32-24.93-42.89-40.01-13.46-16.15-23.8-34.51-30.87-54.3-14.38-40.26-18.74-88.99,6.09-126.18,11.23-16.83,28.33-32.5,48.21-38.02,16.13-4.48,34.49,.3,49.11,7.67,38.23,19.27,52.76,69.31,33.93,107.35-22.27,44.97-78.39,43.09-112.18,12.64-6.8-6.13-28.86-2.5-28.02,8.97,4.42,60.36,39.36,111.85,94.68,137.02,55.11,25.08,119.52,20.92,174.75-1.64,44.26-18.08,79.38-48.77,100.31-92.03,19.86-41.04,27.58-86.69,29.52-131.93,2.41-56.14-4.54-111.57-12.84-166.98-1.52-10.13-28.54-4.14-29.01,4.86,.09-1.65,4.28-1.78,.7-1.49-.73,.06-3.29,1.58-4.8,2.22-7.03,2.97-14.29,5.47-21.55,7.81-11.64,3.76-23.47,7.33-35.38,10.14-38.41,9.08-85.01,1.99-120.8-14.06-36.09-16.19-67.66-43.81-84.3-80.16-19.8-43.24-16.71-90.84-1.4-134.97,32.77-94.5,108.85-165.16,190.94-218.08,9.88-6.37,19.89-12.54,29.99-18.55,9.12-5.42,22.9-13.09,29.4-21.57,3.46-4.51,2.65-12.1,3.19-17.66,.62-6.3,1.38-12.56,1.83-18.88,.97-13.47,2.29-26.86,4.88-40.13,9.09-46.6,34.68-101.27,84.04-116.16,20.99-6.33,51.66-.62,61.66,21.22,9.43,20.58-2.8,43.53-16.11,59.13-16.74,19.61-38.89,35.06-59.93,49.69-24.42,16.98-46.75,35.9-72.74,50.73-4.82,2.75-7.86,8-2.64,11.83,5.33,3.91,15.54,.8,20.53-2.05Z"/>
                  <path d="M670.24,555.31c7.19-7.92,15.35-15.08,25.59-18.71,2.03-.72,4.53-1.75,6.73-1.83-5.85,.22,.04,.97,1.48,1.34,3.68,.93,7.3,2.32,10.4,4.56,16.79,12.17,5.44,36.39-2.53,50.24-12.5,21.72-30,40.89-48.62,57.5-10.08,9-21.18,16.64-32.08,24.6-5.4,3.95-10.8,7.91-16.19,11.88-4.41,3.25-11.89,6.66-14.53,11.37,9.33-.89,18.66-1.78,28-2.66-1.93-25.09,4-50.5,11.22-74.38,7.18-23.75,16.08-46.96,32.43-66.02,4.62-5.38-3.61-8.95-7.77-9.3-7.05-.6-14.6,2.24-19.19,7.59-17.28,20.14-26.87,45.31-34.46,70.41-7.68,25.41-13.31,52.06-11.26,78.73,.37,4.85,9.35,5.14,12.46,4.86,5.14-.46,12.8-2.66,15.53-7.53,.17-.3,.34-.6,.51-.9-2.6,1.88-5.21,3.77-7.81,5.65,15.19-7.47,28.67-19.71,42.35-29.67,13.14-9.56,25.53-19.48,37.01-31.02,20.54-20.66,41.86-45.46,50.47-73.84,6.75-22.26-3.29-40.28-25.14-47.15-28.21-8.88-58.99,7.66-77.78,28.35-11.55,12.72,16.28,13.54,23.18,5.94Z"/>
                  <path d="M698.77,1047.38c2.38,20.3-1.38,40.66-11,58.75-8.56,16.1-21.43,33.74-36.62,44.17,7.82,.46,15.64,.91,23.46,1.37-5.67-65.51-13.97-130.65-21.8-195.93-7.82,3.82-15.64,7.65-23.46,11.47,36.7,10.78,63.84,42.45,69.42,80.16,1.54,10.44,30.69,4.18,29.03-7.04-6.39-43.26-39.27-76.89-80.57-89.02-6.86-2.01-24.64,1.62-23.46,11.47,7.83,65.27,16.12,130.41,21.8,195.93,.77,8.9,19.62,4.01,23.46,1.37,38.13-26.19,64.22-73.15,58.77-119.75-1.21-10.33-30.36-4.31-29.03,7.04Z"/>
                  <path d="M594.96,914.58c.28,2.35,.56,4.69,.84,7.04,9.34-2.99,18.68-5.98,28.02-8.97-5.81-6.1-17.5-2.8-24.55-1.38-9.31,1.88-18.54,4.35-27.69,6.92-24.59,6.92-45.96,20.83-62.76,40.12-18.58,21.34-32.35,51.29-30.47,80.12,2.17,33.27,27.73,54.02,59.81,55.83,5.12,.29,26.39-5.2,19.21-13.89-3.57-4.32-11.54-6.31-16.21-9.63-5.37-3.8-10.11-8.77-13.17-14.64-7.01-13.42-7.85-30.92-3.2-45.12,11.89-36.35,49.11-49.52,84.22-47.18-2.94-1.64-5.87-3.28-8.81-4.92,7.83,67.69,14.8,135.61,25.95,202.86,1.74,10.5,30.76,4.11,29.03-7.04-.08-.52-.16-1.04-.25-1.56-1.68-10.49-30.7-4.13-29.03,7.04,.62,4.14-20.62,9.37-25.95,10.75-13.71,3.55-27.88,6.71-42,8.09-44.16,4.32-92.67-15.67-124.31-45.8-38.46-36.63-53.55-87.46-46.51-139.61,7.23-53.48,34.46-101.77,69.78-141.8,20.02-22.69,42.68-43.1,65.64-62.75,26.85-22.98,54.59-46.29,84.98-64.43-7.81-1.18-15.63-2.36-23.44-3.55-3.12,64.77,3,129.27,10.87,193.5,1.27,10.35,30.42,4.29,29.03-7.04-7.69-62.74-13.96-125.86-10.91-189.14,.53-11.04-18.02-6.78-23.44-3.55-29.7,17.72-56.88,40.18-83.33,62.39-24.19,20.31-47.87,41.54-69.2,64.87-40.27,44.03-72.45,97.85-79.46,158.06-6.88,59.1,13.21,115.84,60.04,153.6,37.41,30.16,90.86,47.85,139.08,41.65,21.23-2.73,42.57-7.07,62.92-13.75,11.83-3.88,37.72-11.9,35.25-28.54-9.68,2.35-19.36,4.7-29.03,7.04,.08,.52,.17,1.04,.25,1.56,9.68-2.35,19.36-4.7,29.03-7.04-11.16-67.25-18.13-135.17-25.96-202.86-.42-3.67-6.05-4.74-8.81-4.92-43.63-2.91-94.12,10.62-117.47,50.84-10.36,17.84-13.17,39.04-6.64,58.78,2.51,7.59,6.55,14.76,12.22,20.42,2.86,2.85,6.12,5.38,9.45,7.66,3.19,2.19,10.23,4.03,12.39,6.65,6.4-4.63,12.81-9.26,19.21-13.89-26.27-1.49-42.82-23.93-42.25-49.51,.49-21.85,9.68-43.65,22.74-60.86,6.34-8.36,13.96-15.86,22.5-21.97,4.42-3.17,9.12-5.89,13.97-8.33,7.83-3.94-.58-.23,4.26-1.76,6.46-2.04,13.08-3.66,19.65-5.3,3.49-.87,6.99-1.72,10.51-2.48,1.17-.25,2.94-.28,3.99-.82-.85,.12-.83,.12,.04,0,3.71-.39,.99-1.31-8.16-2.79,6.3,6.61,29.33,2.09,28.02-8.97-.28-2.35-.56-4.69-.84-7.04-1.24-10.34-30.39-4.3-29.03,7.04Z"/>
                </g>
              </g>
              <path class="cls-22" d="M419.83,1369.91c-.95,39.83-34.01,71.36-73.84,70.41-39.84-.95-71.37-34.01-70.42-73.85,.95-39.83,34.01-71.36,73.85-70.41,39.83,.95,71.36,34.01,70.41,73.85Z"/>
              <path class="cls-25" d="M395.37,910.74s-74.43,123.51-1.2,212.13c73.21,88.59,158.95,71.42,166.67,70.07,7.72-1.36-106.09,32.83-185.31-62.07-79.23-94.91,37.11-257.24,19.84-220.13Z"/>
              <path class="cls-20" d="M516.3,989.71s45.64-68.87,140.12-33.56c94.47,35.28,67.06,120.74,63.03,129.09-4.04,8.36,23.92-32.25,13.33-75.78-10.58-43.53-72.23-97.8-151.85-78.93,0,0-51.86,14.9-64.63,59.19Z"/>
              <path class="cls-15" d="M699.8,522.1s50.83-4.17,44.45,37.95c-6.39,42.14-47.26,80.36-47.26,80.36,0,0,51.46-24.46,69.78-57.64,18.32-33.18-4.98-81.48-66.97-60.68Z"/>
            </g>
          </g>
        </g>
      </g>
    </g>
  </g>
</svg>