<?xml version="1.0" encoding="UTF-8"?>
<svg id="Layer_1" data-name="Layer 1" xmlns="http://www.w3.org/2000/svg" viewBox="0 0 94.35 38.9" fill="white">
  <path d="M25.24,13.68h-2.26l-4.38-5.2h-2.45v5.2h-1.74V.59h3.67c.79,0,1.45,.05,1.98,.15s1,.29,1.42,.55c.47,.3,.85,.68,1.11,1.13s.4,1.03,.4,1.73c0,.94-.24,1.73-.71,2.37s-1.13,1.11-1.96,1.44l4.92,5.72Zm-4.07-9.4c0-.38-.07-.71-.2-1s-.35-.53-.65-.73c-.25-.17-.55-.29-.9-.36s-.75-.1-1.22-.1h-2.05V7.02h1.76c.55,0,1.03-.05,1.44-.15s.76-.28,1.05-.54c.26-.25,.46-.53,.58-.85s.19-.73,.19-1.22Z"/>
  <path d="M34.58,8.94h-7.23c0,.6,.09,1.13,.27,1.58s.43,.82,.75,1.1c.3,.28,.67,.49,1.09,.63s.88,.21,1.38,.21c.67,0,1.34-.13,2.02-.4s1.16-.53,1.45-.79h.09v1.8c-.56,.23-1.12,.43-1.71,.59s-1.19,.24-1.83,.24c-1.63,0-2.9-.44-3.81-1.32s-1.37-2.13-1.37-3.76,.44-2.88,1.31-3.82,2.03-1.42,3.46-1.42c1.32,0,2.35,.39,3.06,1.16s1.08,1.87,1.08,3.3v.9Zm-1.61-1.27c0-.87-.22-1.54-.65-2.01s-1.09-.71-1.96-.71-1.59,.26-2.11,.78-.82,1.17-.89,1.94h5.62Z"/>
  <path d="M45.04,12.56c0,1.66-.38,2.89-1.13,3.67s-1.92,1.17-3.49,1.17c-.52,0-1.03-.04-1.52-.11s-.98-.18-1.46-.31v-1.69h.09c.27,.11,.7,.24,1.28,.39s1.17,.23,1.76,.23,1.03-.07,1.4-.2,.66-.32,.86-.56c.21-.23,.35-.5,.44-.83s.13-.68,.13-1.08v-.9c-.5,.4-.97,.7-1.43,.89s-1.03,.29-1.74,.29c-1.17,0-2.1-.42-2.79-1.27s-1.03-2.04-1.03-3.58c0-.84,.12-1.57,.36-2.18s.56-1.14,.97-1.59c.38-.42,.84-.74,1.39-.97s1.09-.35,1.63-.35c.57,0,1.04,.06,1.43,.17s.79,.29,1.22,.52l.11-.42h1.55V12.56Zm-1.65-1.58V5.62c-.44-.2-.85-.34-1.23-.43s-.75-.13-1.13-.13c-.91,0-1.62,.3-2.14,.91s-.78,1.49-.78,2.65,.19,1.94,.58,2.5,1.03,.85,1.92,.85c.48,0,.96-.09,1.45-.28s.93-.43,1.33-.74Z"/>
  <path d="M56.43,13.68h-1.65v-1.09c-.56,.44-1.09,.78-1.6,1.01s-1.07,.35-1.69,.35c-1.03,0-1.83-.31-2.41-.94s-.86-1.55-.86-2.77V3.86h1.65v5.59c0,.5,.02,.92,.07,1.28s.15,.66,.3,.91c.16,.26,.36,.45,.62,.56s.62,.18,1.1,.18c.43,0,.9-.11,1.4-.33s.98-.51,1.42-.85V3.86h1.65V13.68Z"/>
  <path d="M61.36,13.68h-1.65V0h1.65V13.68Z"/>
  <path d="M72.25,13.68h-1.64v-1.05c-.15,.1-.34,.24-.59,.42s-.49,.32-.73,.43c-.28,.13-.59,.25-.95,.34s-.78,.14-1.26,.14c-.88,0-1.63-.29-2.25-.88s-.92-1.33-.92-2.24c0-.74,.16-1.35,.48-1.81s.77-.82,1.37-1.09c.6-.26,1.32-.44,2.15-.54s1.74-.16,2.7-.21v-.25c0-.38-.07-.69-.2-.93s-.32-.44-.57-.58c-.23-.13-.52-.23-.84-.27s-.67-.07-1.03-.07c-.43,0-.92,.06-1.45,.17s-1.08,.28-1.65,.5h-.09v-1.68c.32-.09,.79-.18,1.4-.29s1.21-.16,1.8-.16c.69,0,1.29,.06,1.81,.17s.96,.31,1.33,.58c.37,.27,.65,.62,.84,1.05s.29,.96,.29,1.59v6.66Zm-1.64-2.42v-2.73c-.5,.03-1.1,.07-1.78,.13s-1.22,.14-1.62,.25c-.47,.13-.86,.34-1.15,.63s-.44,.68-.44,1.17c0,.56,.17,.99,.51,1.27s.86,.43,1.56,.43c.58,0,1.11-.11,1.59-.34s.93-.5,1.34-.81Z"/>
  <path d="M81.56,5.66h-.09c-.25-.06-.48-.1-.72-.13s-.51-.04-.82-.04c-.51,0-1,.11-1.48,.34s-.93,.52-1.37,.87v6.97h-1.65V3.86h1.65v1.45c.66-.53,1.23-.9,1.74-1.12s1.01-.33,1.53-.33c.29,0,.5,0,.62,.02s.32,.04,.58,.08v1.7Z"/>
  <path d="M8.62,35.28H0v-13.09H8.62v1.55H1.74v3.59h6.88v1.55H1.74v4.86h6.88v1.55Z"/>
  <path d="M19.75,35.28h-2.08l-2.79-3.77-2.8,3.77h-1.92l3.83-4.9-3.8-4.92h2.08l2.77,3.71,2.78-3.71h1.93l-3.86,4.83,3.86,4.98Z"/>
  <path d="M30.54,30.25c0,.8-.11,1.52-.34,2.18s-.55,1.22-.97,1.67c-.39,.43-.84,.77-1.37,1.01s-1.08,.36-1.67,.36c-.51,0-.97-.06-1.38-.17s-.83-.28-1.26-.52v4.11h-1.65v-13.44h1.65v1.03c.44-.37,.93-.68,1.48-.93s1.13-.37,1.75-.37c1.18,0,2.1,.45,2.76,1.34s.99,2.13,.99,3.72Zm-1.71,.04c0-1.18-.2-2.07-.61-2.65s-1.03-.88-1.86-.88c-.47,0-.95,.1-1.43,.31s-.94,.47-1.38,.81v5.56c.47,.21,.87,.35,1.21,.43s.72,.11,1.15,.11c.92,0,1.64-.31,2.15-.93s.77-1.54,.77-2.76Z"/>
  <path d="M39.24,27.26h-.09c-.25-.06-.48-.1-.72-.13s-.51-.04-.82-.04c-.51,0-1,.11-1.48,.34s-.93,.52-1.37,.87v6.97h-1.65v-9.82h1.65v1.45c.66-.53,1.23-.9,1.74-1.12s1.01-.33,1.53-.33c.29,0,.5,0,.62,.02s.32,.04,.58,.08v1.7Z"/>
  <path d="M49.02,30.54h-7.23c0,.6,.09,1.13,.27,1.58s.43,.82,.75,1.1c.3,.28,.67,.49,1.09,.63s.88,.21,1.38,.21c.67,0,1.34-.13,2.02-.4s1.16-.53,1.45-.79h.09v1.8c-.56,.23-1.12,.43-1.71,.59s-1.19,.24-1.83,.24c-1.63,0-2.9-.44-3.81-1.32s-1.37-2.13-1.37-3.76,.44-2.88,1.31-3.82,2.03-1.42,3.46-1.42c1.32,0,2.35,.39,3.06,1.16s1.08,1.87,1.08,3.3v.9Zm-1.61-1.27c0-.87-.22-1.54-.65-2.01s-1.09-.71-1.96-.71-1.59,.26-2.11,.78-.82,1.17-.89,1.94h5.62Z"/>
  <path d="M58.54,32.45c0,.9-.37,1.63-1.11,2.21s-1.75,.86-3.04,.86c-.73,0-1.39-.09-2-.26s-1.11-.36-1.52-.57v-1.85h.09c.52,.39,1.1,.7,1.74,.94s1.25,.35,1.84,.35c.73,0,1.29-.12,1.71-.35s.62-.6,.62-1.11c0-.39-.11-.68-.33-.88s-.65-.37-1.28-.51c-.23-.05-.54-.11-.92-.18s-.72-.15-1.03-.23c-.86-.23-1.47-.56-1.83-1.01s-.54-.99-.54-1.63c0-.4,.08-.79,.25-1.14s.42-.68,.76-.96c.33-.28,.75-.49,1.25-.65s1.07-.24,1.7-.24c.59,0,1.18,.07,1.78,.22s1.1,.32,1.5,.52v1.77h-.09c-.42-.31-.93-.57-1.54-.79s-1.2-.32-1.78-.32-1.11,.12-1.53,.35-.62,.58-.62,1.03c0,.4,.13,.71,.38,.91,.25,.21,.64,.37,1.2,.5,.3,.07,.65,.14,1.02,.21s.69,.13,.94,.19c.77,.18,1.36,.48,1.78,.91,.42,.43,.62,1.01,.62,1.72Z"/>
  <path d="M67.91,32.45c0,.9-.37,1.63-1.11,2.21s-1.75,.86-3.04,.86c-.73,0-1.39-.09-2-.26s-1.11-.36-1.52-.57v-1.85h.09c.52,.39,1.1,.7,1.74,.94s1.25,.35,1.84,.35c.73,0,1.29-.12,1.71-.35s.62-.6,.62-1.11c0-.39-.11-.68-.33-.88s-.65-.37-1.28-.51c-.23-.05-.54-.11-.92-.18s-.72-.15-1.03-.23c-.86-.23-1.47-.56-1.83-1.01s-.54-.99-.54-1.63c0-.4,.08-.79,.25-1.14s.42-.68,.76-.96c.33-.28,.75-.49,1.25-.65s1.07-.24,1.7-.24c.59,0,1.18,.07,1.78,.22s1.1,.32,1.5,.52v1.77h-.09c-.42-.31-.93-.57-1.54-.79s-1.2-.32-1.78-.32-1.11,.12-1.53,.35-.62,.58-.62,1.03c0,.4,.13,.71,.38,.91,.25,.21,.64,.37,1.2,.5,.3,.07,.65,.14,1.02,.21s.69,.13,.94,.19c.77,.18,1.36,.48,1.78,.91,.42,.43,.62,1.01,.62,1.72Z"/>
  <path d="M72.05,23.81h-1.86v-1.71h1.86v1.71Zm-.11,11.46h-1.65v-9.82h1.65v9.82Z"/>
  <path d="M83.58,30.37c0,1.6-.41,2.86-1.23,3.79s-1.92,1.39-3.3,1.39-2.49-.46-3.31-1.39-1.23-2.19-1.23-3.79,.41-2.86,1.23-3.79,1.92-1.39,3.31-1.39,2.48,.46,3.3,1.39,1.23,2.19,1.23,3.79Zm-1.71,0c0-1.27-.25-2.22-.75-2.83s-1.19-.93-2.07-.93-1.59,.31-2.09,.93-.74,1.56-.74,2.83,.25,2.16,.75,2.8,1.19,.95,2.08,.95,1.57-.31,2.07-.94,.75-1.57,.75-2.81Z"/>
  <path d="M94.35,35.28h-1.65v-5.59c0-.45-.03-.87-.08-1.27s-.15-.7-.29-.93c-.15-.25-.36-.43-.63-.55s-.63-.18-1.07-.18-.92,.11-1.42,.33-.96,.51-1.42,.85v7.33h-1.65v-9.82h1.65v1.09c.52-.43,1.05-.76,1.6-1s1.12-.36,1.7-.36c1.06,0,1.87,.32,2.43,.96s.83,1.56,.83,2.76v6.37Z"/>
</svg>